<?xml version="1.0" encoding="utf-8"?>
<!-- Generator: Adobe Illustrator 16.0.0, SVG Export Plug-In . SVG Version: 6.00 Build 0)  -->
<!DOCTYPE svg PUBLIC "-//W3C//DTD SVG 1.1//EN" "http://www.w3.org/Graphics/SVG/1.1/DTD/svg11.dtd">
<svg version="1.1" id="Layer_1" xmlns="http://www.w3.org/2000/svg" xmlns:xlink="http://www.w3.org/1999/xlink" x="0px" y="0px"
	 width="91px" height="91px" viewBox="0 0 91 91" enable-background="new 0 0 91 91" xml:space="preserve">
<g>
	<g>
		<path fill="#FAE58F" d="M40.374,41.071c3.256,0.882,5.296,2.924,6.413,4.421c1.421-2.918,2.629-5.866,3.671-8.773
			c-0.293,0.113-0.635,0.061-0.877-0.17c-0.108-0.104-2.746-2.546-7.413-2.188c-4.652,0.373-9.713,3.512-14.806,9.134
			C32.223,40.877,36.588,40.049,40.374,41.071z"/>
		<path fill="#FFFFFF" d="M63.158,42.469c4.419,0,7.776,1.231,10.051,3.634c1.444-7.68,5.393-34.605-8.475-42.641
			c-1.512-0.875-3.292-0.512-4.456,0.122c-1.21,0.661-1.991,1.71-2.038,2.74c-0.14,3.184-1.299,21.73-9.705,39.334
			C51.616,44.451,57.52,42.469,63.158,42.469z"/>
		<path fill="#DABE92" d="M22.674,57.197c0.012-0.012,7.064-6.171,14.255-10.425c3.064-1.813,5.771-1.738,7.701-1.228
			c-1.04-1.105-2.571-2.296-4.72-2.87c-4.357-1.177-9.708,0.477-15.903,4.875c-8.238,10.822-8.059,12.809-7.937,13.093
			C16.667,60.882,19.847,59.251,22.674,57.197z"/>
		<path fill="#DABE92" d="M82.371,49.978c-1.403-5.35-5.916-8.121-6.693-8.565c-0.399,2.856-0.838,5.123-1.121,6.466
			c0.101,0.166,0.219,0.315,0.313,0.49c1.881,3.469,3.813,8.625,4.433,15.723C82.42,58.909,83.471,54.162,82.371,49.978z"/>
		<path fill="#FAE58F" d="M47.4,48.351c-0.014,0.006-0.029,0.006-0.045,0.01c-0.065,0.021-0.13,0.041-0.197,0.047
			c-5.185,9.86-12.779,19.151-23.927,24.926c-2.11,1.088-4.369,2.358-6.905,3.886l-0.279,0.167
			c-1.947,1.175-3.234,1.953-6.892,1.452c-0.376-0.046-0.731,0.029-0.979,0.228c-0.186,0.146-0.293,0.345-0.316,0.591
			c-0.105,1.086-0.045,2.081,0.178,2.956c0.134,0.516,0.638,0.824,1.125,0.711c0.351-0.079,0.607-0.166,0.828-0.24
			c1.278-0.431,1.831-0.482,6.029,1.166c5.858,2.308,11.945,3.122,17.594,2.361c8.426-1.14,19.302-4.039,28.672-16.466
			c0.09-0.116,0.202-0.191,0.324-0.246C61.349,61.84,57.713,51.003,47.4,48.351z"/>
		<path fill="#FAE58F" d="M63.158,44.137c-5.215,0-10.846,1.858-13.863,3.021c16.613,5.721,15.64,31.748,15.626,32.021
			c-0.01,0.12-0.702,7.287,3.051,8.18c4.588,1.094,8.265-2.571,9.162-9.078l0.045-0.327c2.021-14.323-0.937-23.563-3.776-28.791
			C71.596,45.828,68.147,44.137,63.158,44.137z"/>
	</g>
	<g>
		<path fill="#434B56" d="M69.4,90.972c-0.77,0-1.56-0.095-2.347-0.281c-5.05-1.198-5.782-7.675-5.416-11.373
			c0.043-1.348,0.58-26.137-15.563-29.462c-0.95-0.194-1.669-0.978-1.782-1.941c-0.114-0.964,0.403-1.893,1.282-2.304
			c0.369-0.172,9.135-4.229,17.378-4.229c7.735,0,11.317,3.611,12.96,6.639c3.06,5.638,6.258,15.539,4.119,30.695l-0.045,0.318
			C78.968,86.397,74.911,90.972,69.4,90.972z M52.929,47.646c14.104,7.965,13.257,30.841,13.206,31.927
			c-0.002,0.045-0.006,0.087-0.01,0.132c-0.188,1.875,0.047,6.147,1.971,6.603c0.445,0.107,0.884,0.159,1.305,0.159
			c3.091,0,5.439-3.083,6.124-8.05l0.047-0.331c1.966-13.938-0.881-22.877-3.617-27.918c-1.563-2.882-4.507-4.284-9.002-4.284
			C59.489,45.884,55.822,46.743,52.929,47.646z"/>
		<path fill="#434B56" d="M79.099,68.277c-0.423,0-0.85-0.118-1.229-0.366c-1.042-0.679-1.335-2.075-0.656-3.116
			c3.458-5.292,4.662-10.053,3.58-14.146c-1.387-5.242-6.046-7.692-6.093-7.716c-1.105-0.57-1.54-1.928-0.972-3.033
			c0.568-1.105,1.926-1.544,3.033-0.972c0.264,0.136,6.494,3.413,8.385,10.569c1.421,5.379,0.021,11.355-4.161,17.761
			C80.553,67.919,79.833,68.277,79.099,68.277z"/>
		<path fill="#434B56" d="M15.837,64.029c-1.292,0-1.873-0.596-2.205-0.936c-1.978-2.024-1.313-5.239,7.799-17.194
			c6.843-8.977,13.688-13.784,20.348-14.29c6.028-0.459,9.589,2.901,9.738,3.044c0.896,0.865,0.919,2.29,0.056,3.184
			c-0.858,0.888-2.272,0.919-3.168,0.072c-0.128-0.116-2.418-2.143-6.409-1.8c-5.216,0.458-11.088,4.786-16.983,12.52
			c-3.894,5.107-5.833,8.145-6.799,9.919c1.038-0.566,2.251-1.324,3.345-2.112c0.851-0.738,7.479-6.434,14.445-10.555
			c6.709-3.975,12.053,0.078,12.279,0.252c0.98,0.765,1.157,2.18,0.394,3.161c-0.765,0.981-2.179,1.158-3.161,0.394
			c-0.305-0.227-3.27-2.271-7.218,0.068c-6.946,4.11-13.786,10.079-13.854,10.14c-0.052,0.047-0.106,0.089-0.163,0.13
			C19.935,63.18,17.379,64.029,15.837,64.029z"/>
		<path fill="#434B56" d="M46.9,50.164c-0.855,0-1.671-0.491-2.049-1.317c-0.08-0.17-1.676-3.467-5.552-4.485
			c-3.888-1.02-8.996,0.617-14.769,4.736c-1.012,0.723-2.418,0.488-3.142-0.524c-0.721-1.012-0.486-2.418,0.526-3.141
			c7.037-5.026,13.303-6.841,18.624-5.4c5.955,1.611,8.318,6.741,8.416,6.958c0.51,1.135,0.002,2.467-1.133,2.977
			C47.522,50.1,47.208,50.164,46.9,50.164z"/>
		<path fill="#434B56" d="M33.437,80.116c-0.958,0-1.848-0.616-2.148-1.58c-0.373-1.188,0.289-2.449,1.476-2.822
			c13.56-4.244,18.85-12.237,18.903-12.317c0.673-1.041,2.063-1.348,3.108-0.681c1.043,0.669,1.354,2.052,0.69,3.099
			c-0.243,0.383-6.114,9.427-21.356,14.199C33.887,80.083,33.66,80.116,33.437,80.116z"/>
		<path fill="#434B56" d="M29.227,90.301c-4.799,0-9.748-0.964-14.542-2.851c-2.567-1.009-3.358-1.231-3.626-1.208
			c-0.085,0.018-0.177,0.056-0.287,0.093c-0.301,0.103-0.65,0.218-1.121,0.326c-2.141,0.498-4.256-0.799-4.805-2.959
			c-0.312-1.22-0.399-2.57-0.262-4.011c0.105-1.09,0.63-2.054,1.478-2.723c0.902-0.712,2.11-1.023,3.311-0.859
			c2.577,0.352,3.157,0.002,4.877-1.035l0.285-0.173c2.593-1.563,4.91-2.865,7.08-3.982C52.499,54.917,54.866,8.52,54.953,6.552
			c0.1-2.17,1.461-4.154,3.643-5.346c2.424-1.323,5.29-1.354,7.482-0.083c16.84,9.76,10.949,41.44,9.596,47.69
			c-0.262,1.216-1.464,1.983-2.677,1.726c-1.216-0.264-1.987-1.462-1.726-2.678c0.759-3.502,6.987-34.473-7.452-42.84
			c-1.005-0.584-2.28-0.289-3.063,0.139c-0.757,0.411-1.278,1.04-1.304,1.562c-0.227,5.226-3.152,51.299-35.773,68.2
			c-2.083,1.072-4.315,2.329-6.824,3.84l-0.279,0.169c-2.216,1.338-3.787,2.145-7.543,1.679c-0.025,0.547,0.003,1.062,0.081,1.532
			c0.08-0.025,0.151-0.051,0.219-0.073c1.836-0.619,2.818-0.452,7,1.192c5.633,2.216,11.47,3,16.886,2.274
			c8.154-1.102,18.674-3.905,27.731-15.915c0.749-0.992,2.16-1.19,3.153-0.441c0.993,0.748,1.19,2.16,0.442,3.152
			C54.488,85.668,42.842,88.778,33.821,89.998C32.312,90.2,30.776,90.301,29.227,90.301z"/>
	</g>
</g>
</svg>
