<?xml version="1.0" encoding="utf-8"?>
<!-- Generator: Adobe Illustrator 22.1.0, SVG Export Plug-In . SVG Version: 6.00 Build 0)  -->
<svg version="1.1" id="Layer_1" xmlns="http://www.w3.org/2000/svg" xmlns:xlink="http://www.w3.org/1999/xlink" x="0px" y="0px"
	 viewBox="0 0 91 91" style="enable-background:new 0 0 91 91;" xml:space="preserve">
<style type="text/css">
	.st0{fill:#B08C7E;}
	.st1{fill:#ACD263;}
	.st2{fill:#434B56;}
	.st3{fill:#FFFFFF;}
	.st4{fill:#85986F;}
</style>
<g>
	<path class="st0" d="M52.2,29.3c-0.7-4.9-0.9-20.7-0.7-25.7C47.3,3.3,43.2,3,39.2,2.6c-0.1,0-0.3,0-0.4,0.1
		c-0.2,0.1-0.2,0.3-0.2,0.5c0.2,5.3,0.4,21.4,0.6,26.7L52.2,29.3z"/>
	<g>
		<path class="st1" d="M78.5,18.9c-3.1-3.6-8-4.9-14.6-4c-4.8,0.6-12.4,4.3-15.4,9.1c-0.1,0.2-1.8,0.2-7.9-3.6
			c-0.1,0-9.2-6.1-15.2-6.4c-5.4-0.3-10.4,2-12.4,5.6c-1.8,3.5-1.8,7.7-1.7,11.4c0.1,6.1,0,11.8,0,17.4c0,5.6-0.1,11.4,0,17.5
			c0.1,5.3,3.3,13.7,7.8,17.2c1.1,0.8,10.6,7.9,19.8-0.1c0,0,2.1,0.9,6.7,3.1c6.7,3.2,15.3,2.4,18.7,0.7c7.4-3.7,11.9-10,12-16.9
			c0.3-11.7,1.9-23.1,5-33.6C82.6,32.2,82.8,23.9,78.5,18.9z"/>
	</g>
	<g>
		<g>
			<path class="st2" d="M29.5,89.2c-4.6,0-8.9-1.9-11.9-4.3c-5.1-4.1-8.7-13.3-8.8-19.3c-0.1-6-0.1-11.7,0-17.1c0-5.4,0.1-11,0-16.9
				c-0.1-3.8-0.1-8.6,2-12.7c2.5-4.8,8.4-7.6,15.1-7.3c7.1,0.4,12.1,3.9,16.9,7.2c4.6,3.2,8.9,6.2,15.2,6.9c1.4,0.1,2.4,1.4,2.2,2.7
				c-0.1,1.4-1.4,2.4-2.7,2.2c-7.6-0.8-12.9-4.5-17.5-7.8c-4.4-3.1-8.6-6-14.3-6.3c-4.6-0.3-8.8,1.6-10.4,4.6
				c-1.6,3-1.5,6.9-1.5,10.3c0.1,6,0.1,11.6,0,17c0,5.4-0.1,11.1,0,17c0.1,4.8,3,12.5,6.9,15.5c1.5,1.2,9.3,6.7,17.1-0.1
				c1-0.9,2.6-0.8,3.5,0.2s0.8,2.6-0.2,3.5C37.3,87.9,33.3,89.2,29.5,89.2z"/>
			<path class="st2" d="M55.6,90.7c-3.9,0-8.1-0.7-11.7-2.5c-5.3-2.6-8.8-6.9-10-12.6c-0.3-1.3,0.6-2.7,1.9-2.9
				c1.3-0.3,2.7,0.6,2.9,1.9c0.9,4.2,3.3,7.2,7.2,9.1c6.2,3,14,2.1,16.6,0.7c6.6-3.4,10.6-9,10.8-15.1c0.2-11.6,1.9-22.8,5-33.3
				c1-3.6,1.3-11-2.5-15.4c-2.6-3-6.9-4.2-12.6-3.4c-5,0.7-11.5,3.8-13,7.2c-0.5,1.3-2,1.9-3.3,1.3c-1.3-0.5-1.9-2-1.3-3.3
				c2.6-6.1,11.7-9.4,16.9-10.1c9.4-1.3,14.5,2,17.1,5.1c5.1,5.9,4.9,15.2,3.5,20c-2.9,10-4.5,20.8-4.8,32
				c-0.2,7.9-5.2,15.2-13.5,19.4C62.7,90,59.3,90.7,55.6,90.7z"/>
			<path class="st3" d="M25,68.3c-1.3,0-2.4-1-2.5-2.4c-0.6-11.5-0.9-23.9,1.7-36.6c0.3-1.4,1.6-2.2,2.9-2c1.4,0.3,2.2,1.6,2,2.9
				c-2.4,12.1-2.2,24.1-1.6,35.3c0.1,1.4-1,2.5-2.4,2.6C25.1,68.3,25.1,68.3,25,68.3z"/>
		</g>
		<path class="st4" d="M55.5,77.8c-0.3,0-0.6,0-0.9-0.1c-1.7-0.2-3.1-1.1-4-2.5c-0.8-1.2-0.4-2.7,0.7-3.4c1.2-0.8,2.7-0.4,3.4,0.7
			c0.1,0.2,0.3,0.2,0.5,0.3c0.6,0.1,1.3-0.1,1.7-0.5c1.1-1,1.7-2.9,2-4.6c0.7-3.1,1-6.4,1.1-9.7c0-0.9,0-1.9,0-2.8
			c0-3.9,0-7.9,1.5-11.7c0.5-1.3,1.9-1.9,3.2-1.5c1.3,0.5,1.9,1.9,1.5,3.2c-1.1,3-1.1,6.4-1.1,10c0,1,0,2,0,3
			c-0.1,3.6-0.5,7.1-1.2,10.5c-0.5,2.5-1.4,5.4-3.6,7.4C58.9,77.1,57.2,77.8,55.5,77.8z"/>
		<path class="st2" d="M39.2,21.5c-1.3,0-2.4-1.1-2.5-2.4L36.1,3.3c-0.1-1.5,0.7-2.3,1.2-2.7c0.9-0.6,1.7-0.5,2-0.5l12.3,1.1
			C53,1.3,54,2.4,53.9,3.8c-0.2,4.8,0.1,9.6,0.7,14.3c0.2,1.4-0.8,2.6-2.1,2.8c-1.4,0.2-2.6-0.8-2.8-2.1c-0.6-4.2-0.8-8.5-0.8-12.8
			l-7.7-0.7l0.5,13.6C41.8,20.3,40.7,21.4,39.2,21.5C39.3,21.5,39.3,21.5,39.2,21.5z"/>
	</g>
</g>
</svg>
