<?xml version="1.0" encoding="utf-8"?>
<!-- Generator: Adobe Illustrator 22.1.0, SVG Export Plug-In . SVG Version: 6.00 Build 0)  -->
<svg version="1.1" id="Layer_1" xmlns="http://www.w3.org/2000/svg" xmlns:xlink="http://www.w3.org/1999/xlink" x="0px" y="0px"
	 viewBox="0 0 91 91" style="enable-background:new 0 0 91 91;" xml:space="preserve">
<g>
	<path d="M78.7,17.9c-2.6-3-7.7-6.3-17-5c-2.3,0.3-5.3,1.1-8.2,2.5C53,11.6,52.9,7.9,53,4.2c0-1.3-1-2.5-2.3-2.6L38.5,0.6
		c-0.3,0-1.2-0.1-2,0.5c-0.5,0.3-1.3,1.1-1.2,2.7l0.4,11.3c-3.1-1.7-6.5-2.9-10.6-3.2c-6.6-0.4-12.5,2.5-15,7.3
		C7.9,23.3,8,28,8.1,31.8c0.1,5.9,0,11.4,0,16.8c0,5.5-0.1,11.1,0,17.1c0.1,6,3.6,15.2,8.7,19.3c3.1,2.4,7.3,4.3,11.9,4.3
		c3.4,0,6.9-1,10.3-3.6c1.2,1,2.5,1.9,4,2.6c3.6,1.7,7.8,2.5,11.7,2.5c3.7,0,7-0.7,9.3-1.8c8.2-4.2,13.3-11.4,13.4-19.3
		c0.2-11.1,1.8-21.9,4.7-31.9C83.5,33,83.7,23.8,78.7,17.9z M40.4,5.7L48,6.4c0,3.9,0.2,7.9,0.7,11.8c-1.2,1-2.3,2.1-3.1,3.4
		c-1.2-0.8-2.4-1.6-3.6-2.4c-0.4-0.3-0.8-0.5-1.1-0.8L40.4,5.7z M77.3,36.4c-3,10.4-4.7,21.6-4.9,33.1c-0.1,6-4.1,11.6-10.7,15
		c-2.6,1.3-10.4,2.2-16.5-0.7c-3.9-1.9-6.3-4.9-7.2-9c-0.3-1.4-1.6-2.2-3-1.9c-1.4,0.3-2.2,1.6-1.9,3c0.5,2.3,1.4,4.4,2.6,6.2
		c-7.3,5.2-14.3,0.2-15.7-0.9c-3.8-3-6.8-10.6-6.8-15.4c-0.1-5.9-0.1-11.5,0-17c0-5.4,0.1-11,0-16.9c-0.1-3.4-0.1-7.3,1.4-10.3
		c1.6-3,5.7-4.8,10.3-4.6c5.7,0.3,9.9,3.2,14.3,6.3c4.7,3.2,9.9,6.9,17.5,7.7c1.4,0.1,2.6-0.9,2.7-2.2c0.1-1.4-0.9-2.6-2.2-2.7
		c-2.7-0.3-5-1-7.2-2c2.1-3,7.9-5.6,12.3-6.2c5.7-0.8,10,0.3,12.6,3.4C78.6,25.5,78.4,32.8,77.3,36.4z"/>
	<path d="M26.4,27.8c-1.4-0.3-2.7,0.6-2.9,2c-2.5,12.6-2.3,25-1.7,36.4c0.1,1.3,1.2,2.4,2.5,2.4c0,0,0.1,0,0.1,0
		c1.4-0.1,2.4-1.3,2.4-2.6c-0.6-11.1-0.8-23.1,1.6-35.2C28.6,29.4,27.7,28,26.4,27.8z"/>
	<path d="M63.8,42.2c-1.3-0.5-2.7,0.2-3.2,1.5c-1.4,3.8-1.4,7.8-1.5,11.7c0,0.9,0,1.9,0,2.8c-0.1,3.3-0.5,6.5-1.1,9.6
		c-0.4,1.7-0.9,3.6-2,4.6c-0.4,0.4-1.1,0.6-1.7,0.5c-0.1,0-0.4-0.1-0.5-0.2c-0.8-1.2-2.3-1.5-3.5-0.7c-1.2,0.8-1.5,2.3-0.7,3.5
		c0.9,1.3,2.3,2.2,4,2.5c0.3,0,0.6,0.1,0.9,0.1c1.7,0,3.4-0.6,4.7-1.7c2.3-2,3.1-4.8,3.6-7.3c0.7-3.4,1.1-7,1.2-10.5c0-1,0-2,0-2.9
		c0-3.6,0-6.9,1.1-10C65.8,44.2,65.1,42.7,63.8,42.2z"/>
</g>
</svg>
