<?xml version="1.0" encoding="utf-8"?>
<!-- Generator: Adobe Illustrator 16.0.0, SVG Export Plug-In . SVG Version: 6.00 Build 0)  -->
<!DOCTYPE svg PUBLIC "-//W3C//DTD SVG 1.1//EN" "http://www.w3.org/Graphics/SVG/1.1/DTD/svg11.dtd">
<svg version="1.1" id="Layer_1" xmlns="http://www.w3.org/2000/svg" xmlns:xlink="http://www.w3.org/1999/xlink" x="0px" y="0px"
	 width="91px" height="91px" viewBox="0 0 91 91" enable-background="new 0 0 91 91" xml:space="preserve">
<g>
	<path d="M54.28,10.609c-9.768,0-19.12,4.79-21.75,11.145l-0.105,0.32c-0.005,0.02-0.505,1.946-1.954,1.946
		c-0.315,0-0.68-0.072-1.08-0.211l-0.392-0.097c-0.071-0.01-1.767-0.258-4.116-0.258c-4.97,0-11.521,1.068-14.502,6.156
		c-3.759,6.413-3.131,14.933-2.895,18.141c0.026,0.373,0.051,0.649,0.054,0.75c-0.079,0.688-1.388,3.723-4.565,8.922
		c-3.117,5.102-3.87,13.011,0.264,17.416c2.324,2.481,6.062,3.846,10.52,3.846c2.711,0,5.484-0.504,8.018-1.455
		c0.582-0.217,1.159-0.437,1.726-0.655c3.408-1.31,6.351-2.438,9.264-2.438c1.167,0,2.259,0.183,3.341,0.56
		c0.609,0.213,1.398,0.515,2.342,0.879c5.163,1.984,14.777,5.684,23.767,5.684c4.581,0,8.507-0.967,11.665-2.882
		c3.977-2.408,13.521-9.335,16.203-21.566c2.049-9.349-0.449-19.317-7.428-29.633C72.913,12.76,60.694,10.609,54.28,10.609z
		 M85.93,55.898c-2.329,10.623-10.745,16.714-14.252,18.838c-2.484,1.507-5.667,2.271-9.462,2.271
		c-8.202,0-17.333-3.517-22.24-5.401c-0.995-0.386-1.831-0.705-2.472-0.927c-1.539-0.535-3.09-0.796-4.74-0.796
		c-3.701,0-7.143,1.321-10.786,2.72c-0.56,0.215-1.124,0.43-1.696,0.646c-2.034,0.763-4.352,1.184-6.525,1.184
		c-3.223,0-5.926-0.913-7.416-2.501c-2.623-2.796-1.982-8.611,0.264-12.286c3.441-5.633,5.188-9.361,5.188-11.088
		c0-0.213-0.026-0.596-0.063-1.116c-0.21-2.845-0.768-10.404,2.322-15.674c2.067-3.527,7.673-4.054,10.83-4.054
		c1.619,0,2.883,0.135,3.325,0.19c0.777,0.249,1.538,0.375,2.264,0.375c3.701,0,5.531-3.175,6.042-5.019
		c1.792-4.061,9.027-8.394,17.766-8.394c9.618,0,18.447,5.218,24.854,14.696C85.435,38.873,87.72,47.733,85.93,55.898z"/>
	<path d="M53.518,30.882c-10.129,0-18.37,8.241-18.37,18.373c0,10.127,8.24,18.366,18.37,18.366c10.13,0,18.372-8.239,18.372-18.366
		C71.89,39.124,63.647,30.882,53.518,30.882z M53.518,63.365c-7.783,0-14.113-6.331-14.113-14.109
		c0-7.784,6.332-14.117,14.113-14.117c7.783,0,14.117,6.333,14.117,14.117C67.635,57.034,61.301,63.365,53.518,63.365z"/>
	<path d="M60.995,48.932c1.088-0.447,1.608-1.689,1.163-2.777c-1.56-3.805-4.876-6.651-8.87-7.612
		c-1.14-0.274-2.29,0.428-2.566,1.57c-0.275,1.143,0.43,2.292,1.571,2.567c2.669,0.642,4.884,2.545,5.928,5.088
		c0.337,0.824,1.13,1.324,1.969,1.324C60.46,49.091,60.73,49.04,60.995,48.932z"/>
	<path d="M61.724,50.166c-1.161-0.184-2.256,0.682-2.434,1.843s0.617,2.247,1.78,2.424c0.109,0.018,0.22,0.025,0.324,0.025
		c1.035,0,1.942-0.754,2.104-1.804l0.017-0.125C63.69,51.368,62.885,50.343,61.724,50.166z"/>
</g>
</svg>
