<?xml version="1.0" encoding="utf-8"?>
<!-- Generator: Adobe Illustrator 16.0.0, SVG Export Plug-In . SVG Version: 6.00 Build 0)  -->
<!DOCTYPE svg PUBLIC "-//W3C//DTD SVG 1.1//EN" "http://www.w3.org/Graphics/SVG/1.1/DTD/svg11.dtd">
<svg version="1.1" id="Layer_1" xmlns="http://www.w3.org/2000/svg" xmlns:xlink="http://www.w3.org/1999/xlink" x="0px" y="0px"
	 width="91px" height="91px" viewBox="0 0 91 91" enable-background="new 0 0 91 91" xml:space="preserve">
<g>
	<path d="M38.043,89.806c0.034,0.016,0.072,0.014,0.106,0.026c2.421,0.578,4.986,0.91,7.711,0.91
		c17.287,0,28.899-12.098,28.899-30.106c0-9.747-3.179-18.797-8.706-25.39c0.047-0.084,0.097-0.163,0.133-0.253L71.913,21
		c0.349-0.856,0.138-1.837-0.537-2.47c-0.675-0.632-1.67-0.783-2.498-0.378l-7.245,3.521L65.311,7.93
		c0.246-0.918-0.119-1.894-0.908-2.423c-0.792-0.53-1.829-0.5-2.589,0.073l-7.521,5.705L47.403,1.188
		c-0.421-0.618-1.164-0.981-1.879-0.971c-0.752,0.012-1.445,0.403-1.846,1.04l-6.075,9.646l-7.773-5.38
		c-0.788-0.544-1.835-0.526-2.599,0.044c-0.768,0.572-1.083,1.567-0.79,2.478l4.363,13.411l-8.083-3.358
		c-0.86-0.356-1.855-0.139-2.49,0.546c-0.635,0.687-0.773,1.696-0.349,2.528l6.682,13.055c-6.027,6.657-9.606,16.26-9.606,26.409
		C16.959,75.764,25.173,86.688,38.043,89.806z M54.129,47.515l-8.321,8.539l-7.368-7.159l8.23-8.436L54.129,47.515z M42.698,59.244
		l-7.157,7.345l-7.375-7.161l7.161-7.343L42.698,59.244z M28.745,79.943l6.881-7.058l7.523,7.308l-4.971,5.084
		C34.485,84.242,31.319,82.415,28.745,79.943z M38.736,69.694l7.159-7.346l7.542,7.328l-7.169,7.332L38.736,69.694z M25.055,62.616
		l7.376,7.163l-6.571,6.74c-2.026-2.981-3.418-6.557-4.047-10.646c0.061-0.05,0.135-0.07,0.191-0.129L25.055,62.616z M56.363,24.137
		c-0.008,0.034-0.008,0.068-0.017,0.105l-2.719,1.321l-2.841-6.033l8.541-6.474L56.363,24.137z M45.639,6.505l5.099,7.473
		l-1.888,1.432l-1.241-2.637c-0.366-0.779-1.153-1.277-2.016-1.277c-0.002,0-0.006,0-0.011,0c-0.864,0.002-1.651,0.507-2.012,1.293
		l-0.784,1.702l-1.515-1.049L45.639,6.505z M32.723,12.943l8.17,5.658l-2.728,5.914l-1.941-0.808L32.723,12.943z M38.438,29.453
		c1.104,0.459,2.375-0.036,2.876-1.124l4.3-9.331l4.941,10.503c0.256,0.538,0.713,0.955,1.275,1.152
		c0.56,0.197,1.18,0.165,1.714-0.099l12.038-5.847l-2.896,7.074c-0.523-0.461-1.063-0.904-1.617-1.326
		c-0.977-0.743-2.377-0.554-3.12,0.427c-0.745,0.981-0.554,2.377,0.427,3.122c7.356,5.59,11.929,15.794,11.929,26.631
		c0,15.583-9.596,25.652-24.445,25.652c-0.798,0-1.573-0.044-2.341-0.101l2.828-2.891l1.207,1.175
		c0.431,0.419,0.993,0.628,1.551,0.628c0.58,0,1.162-0.226,1.6-0.677c0.855-0.88,0.836-2.292-0.047-3.15l-1.196-1.16l7.169-7.332
		l3.495,3.393c0.431,0.421,0.991,0.628,1.551,0.628c0.58,0,1.162-0.226,1.6-0.675c0.855-0.88,0.836-2.292-0.049-3.15l-3.48-3.38
		l5.971-6.105c0.862-0.88,0.846-2.292-0.032-3.15c-0.879-0.859-2.293-0.844-3.15,0.032l-5.982,6.118l-7.55-7.333l8.363-8.58
		l5.229,4.944c0.431,0.407,0.98,0.608,1.53,0.608c0.591,0,1.181-0.233,1.618-0.696c0.846-0.895,0.808-2.305-0.087-3.148
		l-5.181-4.899l1.724-1.768c0.858-0.882,0.843-2.292-0.04-3.15c-0.882-0.86-2.292-0.842-3.15,0.04l-1.771,1.817l-7.497-7.09
		c0.675-0.88,0.635-2.133-0.182-2.931c-0.832-0.812-2.125-0.814-2.991-0.069l-1.857-1.756c-0.893-0.846-2.307-0.806-3.15,0.087
		c-0.846,0.894-0.806,2.304,0.088,3.148l1.781,1.684l-8.186,8.394l-3.427-3.328c-0.88-0.856-2.294-0.836-3.15,0.046
		c-0.858,0.882-0.836,2.294,0.046,3.15l3.418,3.32l-8.716,8.938c-0.002,0-0.002,0-0.002,0l0,0l-1.984,2.034
		c0.191-10.907,4.925-20.961,12.469-26.353c0.999-0.717,1.233-2.107,0.516-3.108c-0.717-0.999-2.105-1.234-3.108-0.518
		c-0.47,0.336-0.923,0.693-1.372,1.058l-3.321-6.49L38.438,29.453z"/>
</g>
</svg>
