<?xml version="1.0" encoding="utf-8"?>
<!-- Generator: Adobe Illustrator 16.0.0, SVG Export Plug-In . SVG Version: 6.00 Build 0)  -->
<!DOCTYPE svg PUBLIC "-//W3C//DTD SVG 1.1//EN" "http://www.w3.org/Graphics/SVG/1.1/DTD/svg11.dtd">
<svg version="1.1" id="Layer_1" xmlns="http://www.w3.org/2000/svg" xmlns:xlink="http://www.w3.org/1999/xlink" x="0px" y="0px"
	 width="91px" height="91px" viewBox="0 0 91 91" enable-background="new 0 0 91 91" xml:space="preserve">
<g>
	<path d="M73.127,0.929c-0.903-0.401-1.965-0.142-2.576,0.635c-1.568,1.987-2.265,5.036-2.525,8.072
		c-0.563-0.398-1.306-0.516-1.99-0.263c-0.294,0.106-7.121,2.712-7.121,11.223c0,6.129,5.361,11.061,8.241,13.27
		c-1.332,1.638-3.627,2.83-5.093,3.419c-2.073-6.46-7.38-11.556-14.122-13.224c0.196-13.037,8.354-17.677,8.734-17.886
		c1.047-0.561,1.448-1.862,0.891-2.914c-0.558-1.055-1.868-1.457-2.923-0.899c-0.33,0.177-6.076,3.346-9.144,11.345
		C42.434,5.709,36.685,2.54,36.356,2.363c-1.049-0.558-2.346-0.156-2.908,0.891c-0.561,1.044-0.17,2.354,0.875,2.922
		c0.352,0.193,8.541,4.827,8.734,17.884c-6.744,1.668-12.049,6.765-14.122,13.226c-1.434-0.581-3.747-1.781-5.09-3.422
		c2.884-2.209,8.239-7.141,8.239-13.268c0-8.51-6.828-11.116-7.121-11.223c-0.69-0.253-1.427-0.134-1.99,0.263
		c-0.261-3.036-0.958-6.083-2.526-8.072c-0.612-0.777-1.675-1.037-2.576-0.635C17.339,1.168,4.836,6.888,4.836,19.896
		c0,10.137,9.094,14.347,14.749,15.365c2.209,3.865,7.016,5.803,8.471,6.314c-0.05,0.569-0.081,1.145-0.081,1.726
		c0,4.512,1.549,8.71,4.15,12.082c-0.115,0.679-0.193,1.358-0.193,2.024c0,1.345,0.221,2.646,0.625,3.884
		c-0.407,1.257-0.625,2.549-0.625,3.845c0,3.5,1.469,6.734,3.901,9.189c-2.194,1.747-5.292,4.766-5.796,8.203
		c-0.286,1.953,0.289,3.812,1.659,5.371c2.117,2.411,5.095,3.331,8.17,2.518c2.208-0.58,4.213-1.991,5.634-3.833
		c1.423,1.841,3.427,3.253,5.637,3.833c0.732,0.194,1.459,0.29,2.171,0.29c2.274,0,4.386-0.972,5.998-2.808
		c1.371-1.56,1.943-3.416,1.66-5.371c-0.503-3.438-3.601-6.456-5.797-8.203c2.433-2.456,3.902-5.69,3.902-9.189
		c0-1.298-0.219-2.588-0.626-3.845c0.402-1.237,0.626-2.539,0.626-3.884c0-0.668-0.08-1.348-0.194-2.024
		c2.6-3.371,4.148-7.57,4.148-12.082c0-0.581-0.03-1.157-0.08-1.726c1.454-0.51,6.261-2.449,8.47-6.314
		c5.657-1.018,14.749-5.229,14.749-15.365C86.161,6.889,73.658,1.168,73.127,0.929z M20.434,31.017
		c-2.648-0.484-11.278-2.713-11.278-11.121c0-7.687,5.738-12.224,8.724-14.064c1.221,3.433,1.003,9.556,0.479,13.173
		c-0.154,1.057,0.492,2.07,1.516,2.377c1.023,0.308,2.12-0.182,2.576-1.148l2.698-5.736c1.206,1.039,2.614,2.929,2.614,6.098
		C27.764,24.991,22.956,29.257,20.434,31.017z M56.688,83.153c0.101,0.7-0.092,1.283-0.63,1.896
		c-1.038,1.182-2.324,1.584-3.824,1.188c-2.098-0.551-4.017-2.573-4.465-4.705c-0.086-0.418-0.296-0.805-0.606-1.104l-0.156-0.151
		c-0.839-0.82-2.179-0.82-3.021,0.003l-0.156,0.153c-0.305,0.297-0.513,0.683-0.601,1.099c-0.447,2.132-2.364,4.155-4.465,4.705
		c-1.502,0.396-2.785-0.007-3.822-1.188c-0.539-0.611-0.732-1.196-0.631-1.894c0.3-2.08,3.031-4.648,5.132-6.155
		c1.74,0.931,3.696,1.574,5.805,1.818c0.082,0.011,0.168,0.017,0.248,0.017c0.083,0,0.169-0.006,0.25-0.017
		c2.107-0.243,4.063-0.884,5.8-1.816C53.336,78.291,56.356,80.893,56.688,83.153z M41.13,70.063
		c0.042,0.017,0.081,0.031,0.125,0.048c0.354,0.135,0.715,0.257,1.083,0.368c0.08,0.024,0.156,0.05,0.236,0.072
		c0.343,0.1,0.695,0.185,1.047,0.26c0.097,0.022,0.188,0.048,0.284,0.067c0.437,0.088,0.88,0.159,1.33,0.211
		c0.005,0,0.01,0.003,0.016,0.003c0.083,0.01,0.168,0.016,0.25,0.016c0.084,0,0.169-0.006,0.251-0.016
		c0.007,0,0.012-0.003,0.018-0.003c0.449-0.052,0.891-0.123,1.328-0.211c0.098-0.02,0.192-0.047,0.292-0.069
		c0.35-0.074,0.695-0.158,1.033-0.256c0.085-0.024,0.17-0.052,0.251-0.079c0.36-0.106,0.714-0.229,1.061-0.359
		c0.052-0.018,0.102-0.04,0.151-0.061c0.389-0.151,0.768-0.316,1.14-0.499c0.005-0.002,0.01-0.005,0.016-0.007
		c1.25-0.609,2.406-1.359,3.417-2.256c-1.003,3.68-4.51,6.597-8.959,7.204c-4.448-0.607-7.955-3.523-8.958-7.202
		C37.862,68.461,39.421,69.395,41.13,70.063z M36.557,59.621c0.055,0.039,0.117,0.066,0.172,0.104
		c0.558,0.38,1.137,0.732,1.731,1.053c0.149,0.079,0.303,0.146,0.454,0.22c0.485,0.244,0.976,0.473,1.482,0.678
		c0.213,0.084,0.427,0.164,0.646,0.242c0.477,0.176,0.962,0.329,1.456,0.468c0.203,0.057,0.404,0.119,0.613,0.168
		c0.688,0.17,1.39,0.313,2.106,0.407c0.092,0.013,0.186,0.021,0.281,0.021s0.188-0.008,0.282-0.021
		c0.718-0.095,1.42-0.239,2.109-0.407c0.203-0.049,0.404-0.111,0.605-0.168c0.5-0.139,0.988-0.292,1.47-0.47
		c0.211-0.078,0.422-0.152,0.631-0.24c0.519-0.21,1.024-0.443,1.521-0.694c0.136-0.069,0.277-0.129,0.411-0.199
		c0.605-0.326,1.188-0.683,1.753-1.066c0.052-0.033,0.108-0.062,0.161-0.099c-0.103,0.362-0.246,0.711-0.392,1.054
		c-0.1,0.232-0.214,0.455-0.335,0.678c-0.096,0.183-0.197,0.36-0.307,0.536c-0.138,0.223-0.288,0.436-0.445,0.644
		c-0.116,0.156-0.236,0.305-0.362,0.453c-0.182,0.214-0.372,0.425-0.572,0.623c-0.125,0.122-0.253,0.241-0.383,0.358
		c-0.229,0.203-0.458,0.398-0.705,0.585c-0.13,0.098-0.266,0.186-0.401,0.278c-0.261,0.181-0.525,0.354-0.807,0.513
		c-0.151,0.086-0.312,0.16-0.465,0.237c-0.278,0.141-0.557,0.282-0.847,0.401c-0.215,0.087-0.438,0.156-0.661,0.23
		c-0.248,0.084-0.491,0.179-0.747,0.249c-0.491,0.131-0.995,0.24-1.516,0.31c-0.52-0.069-1.023-0.179-1.514-0.31
		c-0.253-0.07-0.497-0.162-0.742-0.246c-0.227-0.077-0.454-0.146-0.67-0.235c-0.286-0.117-0.557-0.253-0.826-0.391
		c-0.164-0.081-0.333-0.16-0.491-0.25c-0.269-0.151-0.524-0.32-0.777-0.493c-0.146-0.1-0.295-0.196-0.437-0.304
		c-0.234-0.177-0.451-0.365-0.667-0.558c-0.144-0.129-0.286-0.257-0.422-0.392c-0.188-0.188-0.37-0.389-0.542-0.59
		c-0.136-0.161-0.268-0.322-0.393-0.49c-0.148-0.199-0.291-0.401-0.422-0.61c-0.114-0.185-0.218-0.373-0.32-0.56
		c-0.117-0.22-0.229-0.44-0.325-0.666C36.802,60.33,36.658,59.982,36.557,59.621z M53.239,55.084
		c-0.085,0.074-0.168,0.156-0.257,0.23c-0.205,0.169-0.427,0.323-0.645,0.481c-0.152,0.113-0.301,0.235-0.46,0.344
		c-0.186,0.128-0.382,0.239-0.575,0.354c-0.199,0.125-0.394,0.252-0.597,0.364c-0.175,0.099-0.359,0.183-0.539,0.273
		c-0.229,0.117-0.455,0.24-0.692,0.344c-0.177,0.08-0.358,0.144-0.541,0.217c-0.246,0.1-0.49,0.202-0.74,0.287
		c-0.208,0.072-0.427,0.127-0.64,0.191c-0.229,0.067-0.454,0.14-0.686,0.198c-0.449,0.108-0.905,0.2-1.369,0.271
		c-0.465-0.071-0.922-0.163-1.37-0.271c-0.198-0.05-0.393-0.115-0.588-0.172c-0.248-0.073-0.5-0.136-0.742-0.219
		c-0.207-0.073-0.404-0.158-0.609-0.239c-0.226-0.09-0.456-0.169-0.677-0.268c-0.181-0.082-0.354-0.177-0.531-0.267
		c-0.236-0.113-0.474-0.226-0.702-0.353c-0.136-0.076-0.263-0.163-0.398-0.241c-0.263-0.157-0.526-0.311-0.777-0.481
		c-0.069-0.047-0.133-0.104-0.203-0.152c-4.011-2.832-6.606-7.493-6.606-12.677c0-7.657,5.656-14.202,13.204-15.336
		c7.546,1.135,13.204,7.679,13.204,15.336C58.703,47.971,56.592,52.218,53.239,55.084z M70.559,31.014
		c-2.521-1.763-7.325-6.023-7.325-10.418c0-3.172,1.409-5.063,2.615-6.098l2.698,5.736c0.455,0.968,1.554,1.458,2.577,1.148
		c1.026-0.307,1.669-1.32,1.513-2.38C72.11,15.391,71.89,9.281,73.11,5.841c2.98,1.858,8.729,6.434,8.729,14.055
		C81.842,28.254,73.21,30.517,70.559,31.014z"/>
</g>
</svg>
