<?xml version="1.0" encoding="utf-8"?>
<!-- Generator: Adobe Illustrator 16.0.0, SVG Export Plug-In . SVG Version: 6.00 Build 0)  -->
<!DOCTYPE svg PUBLIC "-//W3C//DTD SVG 1.1//EN" "http://www.w3.org/Graphics/SVG/1.1/DTD/svg11.dtd">
<svg version="1.1" id="Layer_1" xmlns="http://www.w3.org/2000/svg" xmlns:xlink="http://www.w3.org/1999/xlink" x="0px" y="0px"
	 width="91px" height="91px" viewBox="0 0 91 91" enable-background="new 0 0 91 91" xml:space="preserve">
<g>
	<path d="M33.977,80.159c0.222,0,0.45-0.035,0.672-0.104c15.25-4.771,21.126-13.822,21.369-14.205
		c0.664-1.052,0.354-2.442-0.696-3.109c-1.054-0.664-2.443-0.352-3.111,0.697c-0.051,0.079-5.218,8.033-18.908,12.319
		c-1.188,0.37-1.848,1.634-1.475,2.821C32.129,79.542,33.017,80.159,33.977,80.159z"/>
	<path d="M10.178,86.707c0.471-0.108,0.821-0.225,1.123-0.324c0.11-0.039,0.202-0.077,0.285-0.096
		c0.163,0.006,1.047,0.193,3.63,1.21c4.796,1.889,9.746,2.853,14.548,2.853c1.55,0,3.088-0.103,4.598-0.304
		c8.151-1.103,18.445-3.775,27.778-14.112c0.107,2.027,0.061,3.319,0.061,3.348c-0.385,3.688,0.324,10.249,5.411,11.457
		c0.789,0.188,1.579,0.281,2.347,0.281c5.516,0,9.575-4.575,10.592-11.944l0.047-0.319c0.577-4.087,0.754-7.778,0.662-11.122
		c0.106-0.105,0.208-0.212,0.291-0.34c4.187-6.409,5.587-12.389,4.165-17.771c-1.624-6.144-6.437-9.424-7.936-10.316
		c1.334-12.073,1.182-30.941-11.144-38.084c-2.194-1.273-5.064-1.241-7.487,0.083c-2.182,1.194-3.544,3.178-3.645,5.35
		c-0.042,0.982-0.655,13.063-5.113,26.902c-1.621-0.966-4.368-2.113-8.067-1.832c-6.664,0.507-13.513,5.317-20.358,14.297
		c-9.117,11.962-9.783,15.179-7.805,17.205c0.332,0.34,0.913,0.935,2.206,0.935c1.542,0,4.099-0.85,8.451-4.005
		c0.057-0.041,0.11-0.084,0.163-0.128c0.067-0.062,6.92-6.041,13.861-10.146c1.986-1.178,3.726-1.243,5.001-0.99
		c-4.902,8.861-11.845,17.06-21.697,22.163c-2.172,1.118-4.49,2.422-7.083,3.984l-0.285,0.174c-1.721,1.041-2.308,1.383-4.879,1.036
		c-1.198-0.167-2.41,0.147-3.313,0.86c-0.847,0.668-1.373,1.634-1.479,2.722c-0.138,1.442-0.049,2.795,0.261,4.014
		C5.918,85.908,8.031,87.214,10.178,86.707z M76.133,78.128l-0.044,0.332c-0.78,5.642-3.688,8.784-7.437,7.895
		c-1.923-0.457-2.157-4.73-1.96-6.737c0.049-1.09,0.9-23.973-13.209-31.944c2.898-0.902,6.57-1.766,10.027-1.766
		c4.494,0,7.439,1.403,9.004,4.286C75.251,55.237,78.102,64.177,76.133,78.128z M81.373,50.725c0.703,2.718,0.383,5.733-0.911,8.995
		c-0.916-5.022-2.469-8.874-3.986-11.674c-0.017-0.03-0.037-0.061-0.055-0.094c0.193-0.947,0.43-2.2,0.674-3.706
		C78.588,45.491,80.57,47.635,81.373,50.725z M60.007,6.723c0.024-0.521,0.548-1.149,1.304-1.561
		c0.782-0.432,2.058-0.725,3.065-0.14c11.929,6.912,9.761,29.226,8.215,38.774c-2.095-1.387-5.008-2.394-9.08-2.394
		c-4.271,0-8.667,1.088-11.979,2.159C58.816,26.646,59.876,9.767,60.007,6.723z M42.539,36.129c3.704-0.314,5.878,1.344,6.315,1.717
		c-0.668,1.778-1.401,3.565-2.21,5.35c-1.322-1.25-3.14-2.487-5.562-3.143c-2.229-0.605-4.635-0.601-7.183-0.065
		C36.898,37.693,39.812,36.369,42.539,36.129z M36.546,45.907c-6.97,4.123-13.603,9.821-14.455,10.561
		c-1.094,0.789-2.308,1.547-3.347,2.113c0.945-1.738,2.84-4.704,6.583-9.635c5.667-3.982,10.681-5.573,14.515-4.561
		c0.078,0.022,0.143,0.055,0.218,0.08C38.95,44.726,37.77,45.18,36.546,45.907z M17.106,78.972l0.279-0.167
		c2.51-1.514,4.743-2.769,6.829-3.845c11.105-5.753,18.763-14.888,24.053-24.641c8.62,2.755,11.927,12.071,13.184,19.405
		C52.403,81.681,41.899,84.48,33.759,85.58c-5.423,0.728-11.262-0.059-16.893-2.277c-4.187-1.643-5.167-1.81-7.006-1.19
		c-0.067,0.022-0.141,0.047-0.218,0.074c-0.08-0.473-0.108-0.986-0.083-1.534C13.325,81.116,14.89,80.31,17.106,78.972z"/>
</g>
</svg>
