<?xml version="1.0" encoding="utf-8"?>
<!-- Generator: Adobe Illustrator 16.0.0, SVG Export Plug-In . SVG Version: 6.00 Build 0)  -->
<!DOCTYPE svg PUBLIC "-//W3C//DTD SVG 1.1//EN" "http://www.w3.org/Graphics/SVG/1.1/DTD/svg11.dtd">
<svg version="1.1" id="Layer_1" xmlns="http://www.w3.org/2000/svg" xmlns:xlink="http://www.w3.org/1999/xlink" x="0px" y="0px"
	 width="91px" height="91px" viewBox="0 0 91 91" enable-background="new 0 0 91 91" xml:space="preserve">
<g>
	<path d="M45.471,21.895c-6.396,0-12.697,1.348-18.795,3.943c-0.481,0.034-0.929,0.233-1.28,0.55
		C17.284,30.094,9.554,36.043,2.48,44.117c-3.08,3.517-3.077,9.019,0,12.531c2.657,3.036,6.732,3.252,11.263,0.398
		c2.908-1.832,5.45-3.319,7.736-4.535c1.488,10.213,11.749,18.152,24.174,18.152c12.468,0,22.762-7.997,24.186-18.269
		c2.189,1.228,4.581,2.733,7.287,4.601l0.42,0.295c1.405,0.983,2.998,2.1,5.053,2.1c2.234,0,4.317-0.974,5.861-2.741
		c3.08-3.514,3.082-9.018,0.003-12.533C75.729,29.579,60.864,21.895,45.471,21.895z M45.653,66.4
		c-10.863,0-19.722-7.083-20.079-15.89c7.488-3.319,12.32-3.329,20.079-3.329c7.863,0,13.049,0.005,20.083,3.146
		C65.498,59.22,56.587,66.4,45.653,66.4z M85.249,53.844c-0.723,0.829-1.666,1.284-2.65,1.284c-0.71,0-1.588-0.615-2.602-1.328
		l-0.446-0.309C64.254,42.914,57.254,42.914,45.653,42.914c-11.634,0-17.477,0-34.183,10.527c-1.437,0.902-2.73,1.384-3.739,1.384
		c-0.815,0-1.442-0.305-2.038-0.982C4.05,51.967,4.05,48.803,5.691,46.93c5.506-6.287,11.411-11.184,17.564-14.647l-2.849,9.188
		c-0.348,1.124,0.282,2.321,1.406,2.669c0.211,0.066,0.424,0.097,0.632,0.097c0.91,0,1.751-0.588,2.036-1.502l4.043-13.042
		c3.178-1.337,6.407-2.306,9.674-2.879l-1.879,8.594c-0.252,1.149,0.477,2.286,1.629,2.538c0.152,0.031,0.307,0.048,0.455,0.048
		c0.98,0,1.864-0.681,2.083-1.678l2.198-10.059c0.929-0.062,1.856-0.098,2.789-0.098c3.572,0,7.113,0.461,10.61,1.366
		c-0.011,0.041-0.027,0.078-0.039,0.122l-2.512,11.49c-0.248,1.15,0.479,2.285,1.631,2.538c0.15,0.034,0.306,0.049,0.453,0.049
		c0.983,0,1.866-0.682,2.085-1.679l2.458-11.242c3.32,1.203,6.59,2.813,9.786,4.817l-3.083,9.396
		c-0.369,1.121,0.243,2.327,1.36,2.695c0.224,0.07,0.445,0.106,0.666,0.106c0.896,0,1.731-0.57,2.025-1.47l2.704-8.246
		c4.029,2.969,7.922,6.584,11.637,10.824C86.894,48.803,86.894,51.967,85.249,53.844z"/>
	<path d="M35.524,49.989c-1.124-0.352-2.321,0.278-2.671,1.4l-0.72,2.31c-0.35,1.125,0.277,2.322,1.401,2.671
		c0.21,0.067,0.426,0.098,0.634,0.098c0.91,0,1.752-0.585,2.037-1.498l0.72-2.31C37.277,51.536,36.65,50.34,35.524,49.989z"/>
	<path d="M41.457,56.12c-0.629-0.994-1.944-1.291-2.942-0.66c-0.995,0.629-1.292,1.946-0.661,2.942l1.257,1.983
		c0.407,0.643,1.098,0.993,1.805,0.993c0.39,0,0.784-0.108,1.139-0.331c0.995-0.629,1.291-1.948,0.661-2.943L41.457,56.12z"/>
	<path d="M48.021,55.236c0.362,0.776,1.132,1.231,1.937,1.231c0.301,0,0.605-0.066,0.9-0.2c1.068-0.498,1.528-1.767,1.029-2.835
		l-1.076-2.31c-0.498-1.069-1.77-1.532-2.833-1.031c-1.069,0.497-1.53,1.767-1.032,2.833L48.021,55.236z"/>
	<path d="M56.87,59.394c1.177,0,2.134-0.955,2.134-2.134v-4.083c0-1.177-0.957-2.131-2.134-2.131s-2.133,0.956-2.133,2.131v4.083
		C54.737,58.438,55.693,59.394,56.87,59.394z"/>
</g>
</svg>
