<?xml version="1.0" encoding="utf-8"?>
<!-- Generator: Adobe Illustrator 16.0.0, SVG Export Plug-In . SVG Version: 6.00 Build 0)  -->
<!DOCTYPE svg PUBLIC "-//W3C//DTD SVG 1.1//EN" "http://www.w3.org/Graphics/SVG/1.1/DTD/svg11.dtd">
<svg version="1.1" id="Layer_1" xmlns="http://www.w3.org/2000/svg" xmlns:xlink="http://www.w3.org/1999/xlink" x="0px" y="0px"
	 width="91px" height="91px" viewBox="0 0 91 91" enable-background="new 0 0 91 91" xml:space="preserve">
<g>
	<path d="M30.848,89.646c2.688,0.499,5.377,0.751,7.996,0.751c20.837,0,37.842-16.213,42.311-40.343
		c5.272-28.454-3.652-44.413-27.282-48.79c-3.154-0.585-6.103-0.881-8.768-0.881c-20.703,0-25.711,17.762-29.378,37.548
		c-0.552,2.974-1.794,6.541-3.114,10.317c-3.441,9.866-7.343,21.046-2.207,29.892C13.782,83.96,20.47,87.725,30.848,89.646z
		 M16.965,49.769c1.377-3.948,2.677-7.676,3.293-10.996C24.41,16.368,29.395,4.991,45.104,4.991c2.383,0,5.05,0.271,7.926,0.804
		c21.154,3.919,28.43,17.31,23.595,43.42C72.572,71.09,57.388,85.786,38.843,85.786c-2.338,0-4.745-0.224-7.155-0.67
		c-8.977-1.664-14.635-4.703-17.295-9.289C10.319,68.812,13.849,58.695,16.965,49.769z"/>
	<path d="M47.766,31.416c0.061,0.005,0.121,0.006,0.184,0.006c1.19,0,2.201-0.917,2.294-2.124c0.099-1.269-0.85-2.379-2.118-2.477
		c-4.995-0.39-11.274-2.222-13.614-4.968c-0.823-0.968-2.277-1.084-3.247-0.26c-0.97,0.825-1.085,2.279-0.261,3.248
		C34.547,29.005,42.25,30.986,47.766,31.416z"/>
	<path d="M55.084,43.048c3.178,1.56,6.602,2.16,9.834,2.641c0.115,0.018,0.23,0.025,0.344,0.025c1.121,0,2.104-0.82,2.275-1.963
		c0.188-1.259-0.68-2.433-1.938-2.619c-2.874-0.429-5.899-0.954-8.484-2.223c-1.137-0.556-2.521-0.088-3.083,1.054
		C53.472,41.106,53.942,42.488,55.084,43.048z"/>
	<path d="M36.671,52.254c0.01,0,0.018,0,0.026,0c1.261,0,2.289-1.015,2.304-2.277c0.014-1.272-1.005-2.317-2.278-2.329
		c-1.834-0.022-3.527-0.705-4.418-1.785c-0.808-0.984-2.263-1.121-3.243-0.312c-0.982,0.811-1.121,2.263-0.311,3.246
		C30.508,50.925,33.469,52.218,36.671,52.254z"/>
	<path d="M48.156,55.388c-0.037,1.271,0.963,2.334,2.234,2.372c0.56,0.016,0.826,0.194,1.081,0.477
		c0.454,0.508,1.084,0.766,1.718,0.766c0.548,0,1.095-0.192,1.535-0.586c0.949-0.848,1.028-2.306,0.18-3.253
		c-1.147-1.283-2.621-1.96-4.377-2.01C49.285,53.139,48.194,54.114,48.156,55.388z"/>
	<path d="M22.535,66.554c1.265,0.697,2.572,1.462,3.897,2.242c2.738,1.608,5.571,3.273,8.347,4.513
		c0.305,0.135,0.625,0.199,0.938,0.199c0.881,0,1.724-0.509,2.107-1.365c0.515-1.162-0.006-2.526-1.168-3.043
		c-2.54-1.134-5.262-2.732-7.89-4.278c-1.364-0.8-2.706-1.59-4.007-2.306c-1.111-0.613-2.516-0.21-3.13,0.906
		C21.016,64.534,21.422,65.937,22.535,66.554z"/>
	<path d="M61.009,26.49c0.582,0.107,1.18,0.227,1.787,0.35c2.118,0.428,4.288,0.869,6.288,0.869c0.787,0,1.546-0.068,2.267-0.232
		c1.241-0.28,2.021-1.514,1.738-2.755c-0.278-1.242-1.508-2.03-2.754-1.739c-1.594,0.361-4.268-0.181-6.625-0.66
		c-0.634-0.128-1.264-0.255-1.869-0.367c-1.251-0.219-2.451,0.598-2.684,1.851C58.927,25.058,59.756,26.26,61.009,26.49z"/>
	<path d="M56.504,69.243c-1.057,0.284-2.083,0.264-3.151-0.06c-1.208-0.372-2.501,0.319-2.871,1.539
		c-0.37,1.218,0.318,2.505,1.538,2.872c0.999,0.306,2.008,0.457,3.017,0.457c0.891,0,1.781-0.119,2.664-0.358
		c1.229-0.329,1.956-1.594,1.627-2.824C58.998,69.641,57.733,68.917,56.504,69.243z"/>
</g>
</svg>
