<?xml version="1.0" encoding="utf-8"?>
<!-- Generator: Adobe Illustrator 16.0.0, SVG Export Plug-In . SVG Version: 6.00 Build 0)  -->
<!DOCTYPE svg PUBLIC "-//W3C//DTD SVG 1.1//EN" "http://www.w3.org/Graphics/SVG/1.1/DTD/svg11.dtd">
<svg version="1.1" id="Layer_1" xmlns="http://www.w3.org/2000/svg" xmlns:xlink="http://www.w3.org/1999/xlink" x="0px" y="0px"
	 width="91px" height="91px" viewBox="0 0 91 91" enable-background="new 0 0 91 91" xml:space="preserve">
<g>
	<g>
		<path fill="#ACD263" d="M60.418,20.919c4.313-0.592,8.197-0.225,11.639,1.052c0.122-2.511-1.242-5.293-1.261-5.326
			c-4.032-7.25-7.396-5.494-12.491-2.848c-1.37,0.713-2.787,1.449-4.333,2.065c-2.525,1.007-4.374,0.275-6.009-0.365
			c-1.255-0.495-2.442-0.965-3.934-0.661c-2.665,0.537-3.083,2.229-3.66,4.57c-0.203,0.825-0.411,1.676-0.738,2.542
			c-1.38,3.631-2.45,4.002-4.744,4.031c-0.758,0.008-1.617,0.018-2.754,0.288c-3.133,0.746-3.548,2.793-4.235,6.184l-0.077,0.393
			c-0.973,4.783-1.753,5.889-5.975,8.451l-0.606,0.367c-2.821,1.702-4.235,2.558-3.595,5.792c0.274,1.385,0.823,2.433,1.35,3.447
			c0.896,1.713,1.822,3.488,1.137,6.47c-0.488,2.128-1.785,4.814-3.96,5.972c-1.175,0.631-2.48,0.72-3.798,0.274
			c-0.752,0.115-3.35,0.76-3.36,4.19c-0.016,5.916,4.307,9.017,5.247,9.622c4.331,0.024,7.608-0.956,9.711-2.96
			c2.566-2.446,2.464-5.558,2.462-5.588C26.48,68.321,30.973,24.948,60.418,20.919z"/>
		<path fill="#B8AC7D" d="M12.373,63.616C12.5,63.604,12.255,63.569,12.373,63.616c0.926,0.353,2.179-1.383,2.979-1.811
			c1.552-0.828,2.665-3.021,3.081-4.829c0.539-2.353-0.134-3.64-0.983-5.27c-0.56-1.071-1.194-2.286-1.514-3.915
			c-0.882-4.434,1.451-5.841,4.404-7.624l0.598-0.363c3.625-2.199,4.272-2.874,5.172-7.31l0.081-0.389
			c0.708-3.506,1.321-6.532,5.541-7.535c1.325-0.314,2.329-0.324,3.135-0.334c1.607-0.021,2.041-0.024,3.133-2.908
			c0.292-0.764,0.486-1.565,0.677-2.337c0.276-1.121,0.572-2.248,1.129-3.232c-4.349,1.072-8.503,2.841-8.556,2.864
			c-0.253,0.101-22.818,9.405-27.761,43.495c-0.01,0.081-1.09,7.88,2.373,12.27c1.303,1.655,4.979,3.041,8.398,3.041
			c-1.814-1.765-4.578-4.983-4.291-9.577C10.14,65.146,10.602,63.756,12.373,63.616z"/>
		<path fill="#FAE58F" d="M77.219,27.082c-3.486-3.123-7.805-4.696-12.871-4.696c-1.189,0-2.422,0.085-3.694,0.259
			c-28.091,3.845-32.438,45.856-32.481,46.28c0.012,0.04-2.008,6.067-3.186,8.503c-0.037,0.077,6.835-0.057,6.773,0l55.892-19.197
			C87.638,54.549,87.054,35.898,77.219,27.082z"/>
	</g>
	<g>
		<g>
			<path fill="#434B56" d="M14.414,81.294c-1.014,0-2.071-0.051-3.176-0.152c-3.328-0.306-5.991-1.698-7.914-4.138
				c-4.317-5.479-3.081-14.349-3.026-14.724c5.217-35.987,28.746-45.629,29.745-46.022c1.208-0.474,2.576,0.12,3.052,1.33
				c0.474,1.206-0.118,2.57-1.323,3.048l0,0c-0.896,0.359-22.011,9.172-26.816,42.322C4.67,64.964,4.485,70.883,7.029,74.1
				c1.106,1.4,2.625,2.17,4.639,2.354c5.16,0.475,9.042-0.351,11.223-2.381c2.087-1.941,2.065-4.426,2.063-4.531
				c-0.002-0.092,0-0.209,0.008-0.298c0.176-1.837,4.659-44.983,35.253-49.168c7.672-1.05,14.117,0.711,19.159,5.232
				c11.993,10.753,11.523,33.317,11.497,34.272c-0.026,1.005-0.689,1.881-1.647,2.183L33.059,79.383
				c-1.24,0.389-2.562-0.3-2.949-1.54c-0.389-1.24,0.3-2.562,1.541-2.951l54.504-17.099c-0.134-5.194-1.265-21.229-9.931-28.988
				c-3.964-3.551-9.134-4.921-15.37-4.065c-26.234,3.589-30.94,42.539-31.195,44.849c-0.01,0.965-0.262,4.789-3.464,7.841
				C23.495,79.999,19.541,81.294,14.414,81.294z"/>
			<path fill="#434B56" d="M14.002,66.003c-0.78,0-1.577-0.149-2.369-0.454c-1.214-0.466-1.82-1.825-1.354-3.04
				c0.464-1.214,1.826-1.821,3.038-1.355c0.655,0.251,1.044,0.126,1.337-0.032c0.957-0.509,1.938-2.128,2.333-3.851
				c0.417-1.82-0.033-2.686-0.852-4.254c-0.575-1.103-1.291-2.473-1.656-4.313c-1.08-5.454,2.199-7.432,5.093-9.179l0.594-0.361
				c3.344-2.028,3.676-2.333,4.491-6.339l0.079-0.387c0.708-3.498,1.508-7.462,6.651-8.684c1.486-0.353,2.626-0.365,3.461-0.375
				c0.314-0.004,0.746-0.008,0.872-0.044c-0.041,0.004,0.278-0.284,0.894-1.907c0.257-0.681,0.436-1.402,0.623-2.167
				c0.626-2.542,1.481-6.021,6.155-6.961c2.422-0.486,4.268,0.237,5.751,0.821c1.549,0.61,2.354,0.879,3.636,0.369
				c1.395-0.553,2.738-1.252,4.037-1.927c5.006-2.606,11.238-5.851,16.817,4.173c0.632,1.137,0.223,2.57-0.912,3.202
				c-1.135,0.63-2.567,0.223-3.202-0.914c-3.35-6.023-5.306-5.006-10.53-2.286c-1.404,0.73-2.855,1.486-4.471,2.126
				c-3.07,1.222-5.396,0.306-7.098-0.363c-1.301-0.511-2.085-0.788-3.098-0.585c-1.595,0.32-1.881,0.902-2.513,3.472
				c-0.205,0.827-0.434,1.763-0.794,2.711c-1.593,4.199-3.241,4.955-6.11,4.987c-0.715,0.008-1.455,0.017-2.43,0.25
				c-2.022,0.48-2.373,1.321-3.125,5.036l-0.079,0.393c-1.05,5.164-2.108,6.66-6.658,9.422l-0.608,0.369
				c-2.87,1.733-3.333,2.082-2.908,4.236c0.233,1.176,0.709,2.085,1.212,3.048c0.971,1.862,2.073,3.975,1.267,7.486
				c-0.561,2.448-2.093,5.559-4.708,6.951C15.96,65.76,14.991,66.003,14.002,66.003z"/>
		</g>
		<path fill="#434B56" d="M76.799,46.817c-1.11,0-2.1-0.789-2.31-1.919c-1.96-10.458-8.271-10.557-8.4-10.557
			c-0.011,0.002-0.021,0-0.031,0c-1.286,0-2.338-1.036-2.353-2.325c-0.016-1.299,1.023-2.365,2.324-2.381
			c0.408-0.004,10.395,0.042,13.084,14.395c0.241,1.277-0.602,2.506-1.879,2.746C77.089,46.805,76.943,46.817,76.799,46.817z"/>
	</g>
</g>
</svg>
