<?xml version="1.0" encoding="utf-8"?>
<!-- Generator: Adobe Illustrator 16.0.0, SVG Export Plug-In . SVG Version: 6.00 Build 0)  -->
<!DOCTYPE svg PUBLIC "-//W3C//DTD SVG 1.1//EN" "http://www.w3.org/Graphics/SVG/1.1/DTD/svg11.dtd">
<svg version="1.1" id="Layer_1" xmlns="http://www.w3.org/2000/svg" xmlns:xlink="http://www.w3.org/1999/xlink" x="0px" y="0px"
	 width="91px" height="91px" viewBox="0 0 91 91" enable-background="new 0 0 91 91" xml:space="preserve">
<g>
	<path d="M45.509,8.753c-21.644,0-39.771,12.523-44.14,29.17c-0.008,0.023-0.018,0.041-0.026,0.064
		c-0.17,0.535-0.306,1.161-0.41,1.839c-0.372,1.908-0.572,3.861-0.572,5.852c0,20.361,20.252,36.925,45.148,36.925
		c24.898,0,45.148-16.563,45.148-36.925C90.656,25.317,70.404,8.753,45.509,8.753z M45.509,78.193
		c-18.304,0-33.825-9.687-38.944-22.973c2.282,1.153,4.722,0.795,6.63,0.512c1.348-0.197,2.621-0.386,3.652-0.109
		c2.095,0.555,3.438,3.275,4.737,5.905c0.51,1.027,0.991,2.001,1.53,2.881c3.362,5.462,8.944,7.31,14.216,4.722
		c0.864-0.421,1.654-0.864,2.412-1.282c2.791-1.554,4.47-2.494,7.675-1.559c1.541,0.446,3.001,1.105,4.547,1.805
		c2.892,1.304,5.878,2.65,9.534,2.65c0.247,0,0.499-0.007,0.752-0.02c5.822-0.292,8.195-3.476,10.29-6.283
		c1.104-1.483,2.147-2.885,3.71-4.007c0.87-0.625,2.067-0.739,3.453-0.869c0.892-0.086,1.884-0.189,2.885-0.443
		C76.168,70.358,61.966,78.193,45.509,78.193z M85.63,51.272c-0.089,0.098-0.174,0.201-0.245,0.318
		c-1.071,1.706-2.246,2.751-3.591,3.182c-0.726,0.232-1.592,0.316-2.507,0.403c-1.768,0.163-3.769,0.354-5.61,1.676
		c-2.117,1.523-3.476,3.344-4.671,4.953c-1.943,2.603-3.228,4.325-6.977,4.512c-2.948,0.16-5.518-1.012-8.25-2.245
		c-1.618-0.731-3.294-1.485-5.129-2.021c-4.968-1.442-8.062,0.278-11.052,1.941c-0.693,0.384-1.42,0.788-2.21,1.181
		c-4.596,2.25-7.484-1.401-8.517-3.076c-0.435-0.706-0.871-1.59-1.332-2.521c-1.573-3.184-3.532-7.148-7.559-8.213
		c-1.908-0.513-3.776-0.236-5.429,0.008c-2.416,0.355-3.734,0.486-4.891-0.787c-2.249-2.467-2.838-6.982-2.397-9.959
		c3.053-15.537,19.937-27.461,40.244-27.461c22.462,0,40.737,14.585,40.737,32.515C86.246,47.586,86.028,49.452,85.63,51.272z"/>
	<path d="M45.509,28.557c-8.438,0-14.802,3.761-14.802,8.749c0,2.969,2.262,5.492,5.862,7.062c1.956,1.002,4.681,1.506,7.364,1.646
		c0.015,0,0.032,0.003,0.048,0.003c0.514,0.026,1.026,0.042,1.527,0.042c0.505,0,1.016-0.018,1.531-0.042
		c0.015,0,0.028-0.003,0.043-0.003c2.684-0.138,5.411-0.643,7.366-1.647c3.599-1.567,5.863-4.09,5.863-7.058
		C60.311,32.319,53.947,28.557,45.509,28.557z M45.509,41.647c-2.63,0-4.859-0.445-6.576-1.089c1.204-0.505,3.484-1.046,6.576-1.046
		c3.096,0,5.375,0.542,6.574,1.044C50.369,41.202,48.141,41.647,45.509,41.647z M55.828,37.708
		c-2.169-1.874-6.466-2.606-10.319-2.606c-3.852,0-8.152,0.731-10.321,2.606c-0.042-0.136-0.071-0.273-0.071-0.403
		c0-1.768,4.048-4.339,10.392-4.339c6.343,0,10.391,2.57,10.391,4.339C55.899,37.435,55.871,37.571,55.828,37.708z"/>
	<path d="M23.138,24.075c-0.832-0.892-2.224-0.938-3.118-0.111l-7.537,7.009c-0.892,0.832-0.94,2.227-0.111,3.118
		c0.434,0.466,1.024,0.702,1.614,0.702c0.539,0,1.076-0.195,1.501-0.59l7.537-7.009C23.917,26.363,23.967,24.968,23.138,24.075z"/>
	<path d="M23.377,44.454c-0.672-1.011-2.039-1.288-3.057-0.611c-1.014,0.674-1.287,2.046-0.611,3.058l5.026,7.539
		c0.425,0.636,1.125,0.98,1.836,0.98c0.42,0,0.846-0.119,1.22-0.37c1.013-0.675,1.287-2.043,0.611-3.056L23.377,44.454z"/>
	<path d="M27.653,32.633l-5.253,1.826c-1.151,0.401-1.758,1.656-1.358,2.807c0.316,0.912,1.17,1.483,2.082,1.483
		c0.241,0,0.486-0.041,0.724-0.125l5.255-1.826c1.149-0.401,1.757-1.657,1.357-2.807C30.058,32.837,28.798,32.232,27.653,32.633z"/>
	<path d="M50.18,49.759c-0.775-0.938-2.166-1.073-3.104-0.298c-0.94,0.777-1.071,2.164-0.297,3.105l4.338,5.253
		c0.436,0.527,1.064,0.801,1.702,0.801c0.493,0,0.99-0.164,1.401-0.504c0.939-0.777,1.07-2.167,0.296-3.104L50.18,49.759z"/>
	<path d="M74.578,40.526l-7.766,4.376c-1.061,0.598-1.436,1.942-0.836,3c0.406,0.72,1.152,1.124,1.921,1.124
		c0.366,0,0.736-0.09,1.079-0.283l7.766-4.374c1.062-0.598,1.438-1.944,0.841-3.005C76.985,40.302,75.642,39.925,74.578,40.526z"/>
	<path d="M69.632,33.093c0.237,1.015,1.146,1.7,2.143,1.7c0.17,0,0.339-0.019,0.51-0.059c1.186-0.279,1.92-1.467,1.639-2.652
		l-2.511-10.667c-0.278-1.186-1.467-1.922-2.652-1.639c-1.186,0.279-1.921,1.464-1.638,2.65L69.632,33.093z"/>
	<path d="M59.776,16.919l-5.874,4.111c-0.997,0.699-1.24,2.075-0.541,3.071c0.428,0.613,1.112,0.942,1.809,0.942
		c0.436,0,0.877-0.13,1.262-0.401l5.874-4.111c0.999-0.699,1.241-2.075,0.542-3.07C62.151,16.463,60.778,16.22,59.776,16.919z"/>
	<path d="M32.982,20.481l6.626,5.026c0.397,0.301,0.866,0.448,1.329,0.448c0.667,0,1.324-0.301,1.757-0.874
		c0.737-0.97,0.547-2.354-0.423-3.088l-6.626-5.026c-0.97-0.734-2.353-0.544-3.088,0.426C31.823,18.363,32.012,19.747,32.982,20.481
		z"/>
	<path d="M35.095,51.605l-3.425,3.2c-0.893,0.83-0.938,2.223-0.106,3.115c0.433,0.464,1.021,0.699,1.611,0.699
		c0.539,0,1.08-0.195,1.504-0.593l3.425-3.199c0.893-0.832,0.938-2.227,0.106-3.116C37.38,50.821,35.985,50.772,35.095,51.605z"/>
</g>
</svg>
