<?xml version="1.0" encoding="utf-8"?>
<!-- Generator: Adobe Illustrator 16.0.0, SVG Export Plug-In . SVG Version: 6.00 Build 0)  -->
<!DOCTYPE svg PUBLIC "-//W3C//DTD SVG 1.1//EN" "http://www.w3.org/Graphics/SVG/1.1/DTD/svg11.dtd">
<svg version="1.1" id="Layer_1" xmlns="http://www.w3.org/2000/svg" xmlns:xlink="http://www.w3.org/1999/xlink" x="0px" y="0px"
	 width="91px" height="91px" viewBox="0 0 91 91" enable-background="new 0 0 91 91" xml:space="preserve">
<path d="M64.389,25.636c-0.569-1.027-1.864-1.401-2.897-0.832c-1.029,0.568-1.401,1.864-0.83,2.896
	c2.326,4.206,6.466,5.558,10.826,5.558c7.567,0,15.79-4.07,16.326-4.339l2.428-1.221l-1.766-2.065
	c-5.628-6.589-11.781-10.155-18.287-10.6c-3.664-0.245-6.839,0.552-9.313,1.566c1.823-8.301-2.107-15.026-2.167-15.13l-3.648,2.203
	c0.309,0.509,7.153,12.222-5.423,22.877c-0.197-0.06-0.398-0.118-0.602-0.169c0.291-1.644,0.297-3.325-0.054-4.976
	c-1.277-6.034-6.678-10.415-12.839-10.415c-0.912,0-1.832,0.097-2.731,0.287c-6.818,1.446-11.267,7.971-10.257,14.775
	c-0.004,0-0.011-0.001-0.018-0.001c-0.913,0-1.83,0.098-2.731,0.287c-7.084,1.501-11.629,8.487-10.129,15.575
	c0.424,1.997,1.299,3.811,2.529,5.367c-0.781,0.009-1.562,0.085-2.334,0.249c-3.2,0.678-5.945,2.563-7.729,5.303
	c-1.784,2.741-2.394,6.017-1.716,9.215c0.691,3.259,2.673,5.99,5.331,7.72C4.36,72.47,3.571,75.897,4.29,79.281
	c1.164,5.499,6.082,9.489,11.694,9.49c0,0,0,0,0.001,0c0.833,0,1.671-0.088,2.491-0.263c3.927-0.83,7.074-3.557,8.542-7.156
	c1.838,0.971,3.916,1.527,6.092,1.527l0,0c0.912,0,1.83-0.094,2.731-0.288c5.925-1.255,10.069-6.379,10.373-12.174
	c0.679,0.109,1.369,0.175,2.071,0.175l0,0c0.911,0,1.829-0.096,2.73-0.288c4.932-1.045,8.624-4.747,9.911-9.289
	c0.366,0.035,0.734,0.08,1.097,0.08c0.798,0,1.596-0.085,2.37-0.249c3.143-0.666,5.838-2.514,7.589-5.207
	c1.751-2.691,2.349-5.906,1.682-9.05c-1.17-5.525-6.112-9.535-11.756-9.535c-0.836,0-1.676,0.088-2.498,0.264
	c-0.177,0.036-0.338,0.104-0.509,0.147c-0.042-0.362-0.098-0.72-0.176-1.071c-0.677-3.199-2.518-5.923-5.011-7.786
	c2.002-1.887,3.513-3.809,4.645-5.716c0.974-0.775,5.438-4.023,11.539-3.614c4.607,0.316,9.094,2.658,13.368,6.971
	C78.282,28.237,67.675,31.58,64.389,25.636z M27.45,25.967c-1.013-4.788,2.058-9.509,6.844-10.524
	c0.61-0.128,1.231-0.194,1.849-0.194c4.162,0,7.809,2.961,8.674,7.038c0.264,1.246,0.256,2.521-0.021,3.753
	c-0.551,0.045-1.1,0.115-1.642,0.23c-0.451,0.095-0.894,0.217-1.327,0.356c-0.083,0.026-0.161,0.062-0.241,0.09
	c-0.354,0.121-0.703,0.251-1.042,0.401c-0.075,0.032-0.146,0.074-0.22,0.107c-0.339,0.158-0.674,0.327-0.999,0.514
	c-0.066,0.037-0.128,0.079-0.192,0.118c-0.324,0.193-0.64,0.399-0.946,0.619c-0.064,0.046-0.125,0.096-0.187,0.142
	c-0.294,0.223-0.582,0.453-0.858,0.7c-0.067,0.062-0.131,0.125-0.199,0.186c-0.258,0.242-0.507,0.492-0.749,0.753
	c-0.071,0.079-0.141,0.161-0.211,0.241c-0.224,0.258-0.439,0.525-0.644,0.802c-0.067,0.09-0.131,0.182-0.197,0.273
	c-0.091,0.13-0.19,0.25-0.279,0.385c-0.11,0.17-0.201,0.346-0.303,0.52c-0.026,0.044-0.057,0.083-0.083,0.128
	c-0.019-0.031-0.042-0.062-0.061-0.093c-0.13-0.219-0.269-0.431-0.41-0.642c-0.069-0.103-0.136-0.206-0.208-0.306
	c-0.151-0.21-0.312-0.413-0.476-0.616c-0.065-0.079-0.129-0.162-0.196-0.239c-0.206-0.243-0.421-0.475-0.644-0.701
	c-0.025-0.025-0.048-0.051-0.073-0.076c-1.329-1.332-2.933-2.376-4.708-3.045C27.602,26.579,27.517,26.274,27.45,25.967z
	 M36.952,48.288c0.18,0.851,0.226,1.696,0.162,2.521c-0.026,0.099-0.059,0.197-0.071,0.3c-0.167,1.469-0.641,2.795-1.408,3.944
	c-0.003,0.009-0.006,0.016-0.01,0.021c-0.508,0.756-1.133,1.43-1.853,2.002c-0.072,0.042-0.145,0.077-0.211,0.129
	c-1.049,0.79-2.187,1.322-3.38,1.587c-0.024,0.005-0.048,0.013-0.072,0.018c-0.262,0.057-0.526,0.094-0.792,0.126
	c-0.493,0.054-0.999,0.062-1.512,0.028c-0.105-0.005-0.209-0.018-0.314-0.026c-0.207-0.021-0.415-0.039-0.623-0.074
	c-0.071-0.012-0.141-0.008-0.209-0.013c-0.856-0.159-1.667-0.459-2.425-0.852c-0.046-0.028-0.081-0.07-0.13-0.095
	c-1.098-0.588-2.036-1.385-2.787-2.318c-0.115-0.147-0.228-0.297-0.334-0.45c-0.113-0.159-0.229-0.318-0.331-0.487
	c-0.203-0.339-0.383-0.694-0.541-1.063c-0.048-0.11-0.088-0.223-0.131-0.335c-0.158-0.416-0.298-0.842-0.393-1.288
	c-0.002-0.011-0.002-0.023-0.004-0.033c-0.098-0.476-0.154-1-0.169-1.604c-0.001-0.041-0.016-0.078-0.02-0.119
	c-0.004-0.376,0.024-0.748,0.067-1.117c0.019-0.075,0.05-0.145,0.061-0.223c0.461-3.192,2.617-5.858,5.534-7.006
	c0.051-0.021,0.103-0.04,0.155-0.058c0.395-0.147,0.801-0.272,1.219-0.361c0.282-0.059,0.566-0.102,0.852-0.134
	c0.239-0.026,0.479-0.039,0.72-0.045c0.033-0.001,0.065-0.004,0.1-0.004c0.15-0.002,0.301,0.008,0.45,0.014
	c0.304,0.01,0.605,0.04,0.901,0.079c0.273,0.038,0.543,0.089,0.81,0.153c0.181,0.042,0.357,0.09,0.533,0.144
	c0.352,0.106,0.697,0.235,1.035,0.387c0.135,0.061,0.272,0.119,0.403,0.186c0.214,0.108,0.427,0.222,0.635,0.347
	c0.292,0.179,0.579,0.368,0.849,0.579c0.043,0.042,0.075,0.097,0.123,0.135c1.546,1.257,2.601,2.924,3.049,4.821
	c0.003,0.014,0.013,0.026,0.019,0.043C36.919,48.195,36.94,48.238,36.952,48.288z M21.29,30.506c0.61-0.129,1.232-0.195,1.849-0.195
	c0.776,0,1.523,0.133,2.247,0.329c0.049,0.018,0.093,0.042,0.142,0.056c0.942,0.268,1.818,0.68,2.602,1.209
	c0.024,0.017,0.047,0.031,0.071,0.048c0.25,0.172,0.492,0.354,0.721,0.549c0.252,0.221,0.497,0.449,0.726,0.697
	c0.116,0.125,0.221,0.262,0.331,0.393c0.187,0.228,0.364,0.461,0.526,0.707c0.075,0.112,0.155,0.22,0.225,0.336
	c0.498,0.825,0.873,1.735,1.08,2.715c0.01,0.048,0.021,0.096,0.029,0.144c-0.977-0.28-1.996-0.442-3.041-0.484
	c-0.05-0.002-0.099-0.005-0.149-0.006c-0.123-0.004-0.245-0.017-0.37-0.017c-0.299,0-0.6,0.026-0.899,0.046
	c-0.111,0.007-0.221,0.007-0.331,0.018c-0.503,0.047-1.006,0.118-1.502,0.223c-0.494,0.105-0.974,0.244-1.445,0.4
	c-0.086,0.028-0.169,0.065-0.257,0.095c-0.413,0.146-0.817,0.314-1.21,0.5c-0.037,0.018-0.074,0.035-0.109,0.054
	c-2.126,1.03-3.945,2.608-5.268,4.639c-0.385,0.593-0.706,1.212-0.988,1.844c-0.899-1.083-1.527-2.368-1.827-3.779
	C13.432,36.242,16.503,31.521,21.29,30.506z M6.314,55.154c1.164-1.787,2.955-3.015,5.041-3.459
	c0.525-0.111,1.063-0.167,1.596-0.167c0.781,0,1.552,0.115,2.307,0.347c0.042,0.333,0.096,0.655,0.162,0.97
	c0.083,0.399,0.189,0.788,0.308,1.173c0.03,0.093,0.068,0.184,0.1,0.278c0.099,0.291,0.201,0.582,0.319,0.862
	c0.038,0.088,0.08,0.176,0.119,0.263c0.129,0.287,0.263,0.571,0.412,0.851c0.033,0.063,0.071,0.126,0.106,0.188
	c0.171,0.308,0.353,0.608,0.547,0.899c0.016,0.026,0.034,0.049,0.05,0.075c0.929,1.376,2.102,2.568,3.46,3.506
	c-0.345,1.927-1.379,3.62-2.856,4.806c-0.048,0.029-0.101,0.05-0.146,0.083c-0.45,0.345-0.919,0.632-1.403,0.868
	c-0.093,0.045-0.184,0.09-0.28,0.131c-0.168,0.075-0.338,0.145-0.509,0.205c-0.319,0.113-0.643,0.216-0.981,0.287
	c-0.001,0-0.003,0-0.005,0.002c-0.653,0.137-1.325,0.184-2.005,0.145c-0.007,0-0.014-0.002-0.021-0.002
	c-0.679-0.043-1.366-0.172-2.047-0.392c-0.093-0.03-0.189-0.037-0.285-0.054c-2.535-0.923-4.524-3.106-5.107-5.856
	C4.754,59.077,5.15,56.943,6.314,55.154z M17.592,84.344c-0.531,0.113-1.071,0.17-1.607,0.17l0,0c-3.611,0-6.777-2.571-7.526-6.11
	c-0.536-2.525,0.234-5.091,2.02-6.922c0.818,0.175,1.66,0.276,2.522,0.276l0,0c0.851,0,1.71-0.09,2.549-0.268
	c1.403-0.297,2.705-0.828,3.871-1.543c0.198,0.101,0.395,0.208,0.585,0.326c0.001,0.041,0.008,0.079,0.009,0.12
	c0.008,0.165,0.022,0.33,0.036,0.494c0.043,0.539,0.106,1.067,0.217,1.584c0,0.006,0.002,0.01,0.003,0.013
	c0.109,0.51,0.257,1.005,0.423,1.489c0.039,0.114,0.079,0.229,0.121,0.341c0.182,0.486,0.383,0.961,0.618,1.417
	c0.013,0.023,0.028,0.048,0.04,0.07c0.244,0.465,0.518,0.909,0.811,1.336c0.037,0.051,0.07,0.104,0.108,0.157
	c0.324,0.459,0.677,0.898,1.056,1.309C22.767,81.476,20.513,83.728,17.592,84.344z M34.958,78.429
	c-0.61,0.128-1.231,0.194-1.848,0.194l0,0c-2.342,0-4.5-0.962-6.114-2.508c-0.253-0.243-0.497-0.495-0.717-0.76
	c-0.102-0.124-0.191-0.255-0.288-0.384c-0.179-0.241-0.356-0.484-0.511-0.741c-0.125-0.213-0.228-0.438-0.336-0.661
	c-0.098-0.198-0.206-0.394-0.287-0.599c-0.173-0.443-0.318-0.9-0.419-1.376c0-0.003-0.002-0.008-0.003-0.014
	c-0.006-0.029-0.006-0.06-0.013-0.089c-0.138-0.688-0.19-1.404-0.147-2.196c0.001-0.028-0.007-0.058-0.006-0.087
	c0.149-2.265,1.173-4.43,2.886-5.995c0.366,0.031,0.734,0.049,1.105,0.049c0.207,0,0.415-0.024,0.621-0.032
	c0.138-0.005,0.276-0.013,0.413-0.021c0.188-0.016,0.375-0.03,0.563-0.055c0.376-0.044,0.752-0.098,1.122-0.178
	c0.005-0.001,0.01-0.001,0.015-0.002c0.023-0.005,0.043-0.014,0.065-0.019c0.377-0.08,0.749-0.179,1.116-0.295
	c0.325-0.102,0.638-0.222,0.95-0.344c0.037-0.017,0.074-0.027,0.109-0.041c0.743-0.304,1.443-0.674,2.104-1.097
	c0.131,0.034,0.263,0.071,0.392,0.11c0.122,0.396,0.265,0.78,0.42,1.159c0.027,0.063,0.057,0.121,0.083,0.182
	c0.135,0.315,0.28,0.624,0.439,0.924c0.039,0.075,0.083,0.146,0.125,0.222c0.156,0.283,0.322,0.562,0.499,0.832
	c0.047,0.073,0.096,0.143,0.145,0.216c0.185,0.269,0.379,0.533,0.583,0.788c0.048,0.061,0.096,0.119,0.144,0.178
	c0.225,0.271,0.458,0.532,0.703,0.783c0.032,0.035,0.066,0.07,0.101,0.105c0.882,0.89,1.883,1.654,2.979,2.265
	C42.354,73.354,39.388,77.49,34.958,78.429z M50.135,66.141c-0.61,0.129-1.231,0.193-1.849,0.193c-1.333,0-2.602-0.331-3.755-0.876
	c-0.444-0.211-0.862-0.456-1.261-0.729c-0.112-0.08-0.232-0.149-0.342-0.235c-0.191-0.146-0.372-0.308-0.55-0.469
	c-0.137-0.126-0.271-0.252-0.4-0.386c-0.165-0.166-0.329-0.333-0.48-0.513c-0.202-0.242-0.392-0.5-0.568-0.766
	c-0.143-0.212-0.271-0.439-0.395-0.664c-0.105-0.191-0.207-0.387-0.299-0.587c-0.083-0.185-0.167-0.37-0.239-0.562
	c-0.149-0.395-0.283-0.8-0.374-1.223c-0.001-0.011-0.002-0.022-0.005-0.032c-0.001-0.009-0.005-0.016-0.008-0.023
	c-0.146-0.706-0.189-1.469-0.129-2.326c0.025-0.041,0.044-0.085,0.069-0.127c0.854-1.437,1.434-3.032,1.691-4.714
	c0.374-0.493,0.801-0.929,1.258-1.328c0.045-0.032,0.099-0.047,0.141-0.081c0.529-0.447,1.086-0.814,1.663-1.122
	c0.092-0.048,0.183-0.099,0.274-0.143c0.208-0.101,0.42-0.186,0.633-0.27c0.406-0.151,0.817-0.294,1.247-0.384
	c0.385-0.081,0.772-0.13,1.162-0.159c0.072-0.007,0.14-0.007,0.211-0.013c0.285-0.015,0.567-0.005,0.853,0.009
	c0.211,0.009,0.42,0.03,0.629,0.056c0.278,0.033,0.555,0.066,0.832,0.129c0.103,0.022,0.202,0.057,0.306,0.081
	c0.331,0.083,0.661,0.175,0.985,0.298c0.002,0,0.006,0,0.008,0.003c0.265,0.101,0.516,0.225,0.769,0.348
	c0.088,0.043,0.181,0.076,0.267,0.122c0.193,0.103,0.372,0.226,0.554,0.341c0.209,0.131,0.413,0.269,0.61,0.417
	c0.14,0.105,0.276,0.213,0.406,0.326c0.271,0.229,0.527,0.473,0.767,0.734c0.054,0.057,0.113,0.11,0.165,0.169
	c0.296,0.341,0.565,0.704,0.81,1.087c0.052,0.08,0.096,0.168,0.146,0.252c0.185,0.313,0.349,0.639,0.495,0.975
	c0.048,0.112,0.1,0.225,0.144,0.34c0.163,0.426,0.305,0.863,0.402,1.321c0,0.001,0.002,0.002,0.002,0.003
	c0.171,0.813,0.201,1.705,0.098,2.728c-0.006,0.075,0.016,0.147,0.018,0.223C56.629,62.209,53.927,65.338,50.135,66.141z
	 M60.291,41.489c0.533-0.113,1.079-0.171,1.618-0.171c3.642,0,6.832,2.59,7.589,6.158c0.43,2.03,0.043,4.105-1.085,5.844
	c-1.131,1.738-2.872,2.933-4.902,3.363c-0.683,0.144-1.389,0.188-2.113,0.129c-0.016-0.336-0.04-0.672-0.081-1.012
	c-0.042-0.359-0.098-0.715-0.172-1.064c-0.089-0.425-0.205-0.839-0.336-1.245c-0.044-0.147-0.102-0.289-0.153-0.436
	c-0.09-0.25-0.184-0.497-0.284-0.742c-0.078-0.179-0.16-0.353-0.243-0.528c-0.092-0.191-0.189-0.382-0.291-0.568
	c-0.105-0.192-0.211-0.388-0.324-0.575c-0.088-0.14-0.181-0.276-0.274-0.412c-0.293-0.443-0.609-0.868-0.955-1.271
	c-0.052-0.061-0.098-0.124-0.149-0.183c-0.163-0.185-0.339-0.358-0.514-0.537c-0.123-0.124-0.247-0.246-0.372-0.367
	c-0.159-0.145-0.32-0.287-0.485-0.425c-0.184-0.157-0.374-0.303-0.565-0.449c-0.125-0.094-0.249-0.191-0.38-0.283
	c-0.339-0.236-0.685-0.464-1.047-0.67c0.021-0.051,0.037-0.103,0.062-0.151c0.023-0.052,0.052-0.098,0.073-0.148
	c0.644-1.33,1.658-2.471,2.945-3.26c0.026-0.017,0.048-0.039,0.074-0.057C58.642,41.998,59.438,41.669,60.291,41.489z
	 M54.719,39.448c-1.238,0.924-2.271,2.091-3.075,3.419c-0.065,0.108-0.137,0.21-0.201,0.319c-0.171,0.307-0.318,0.626-0.466,0.949
	c-0.065,0.146-0.148,0.284-0.211,0.432c-0.802-0.155-1.619-0.242-2.457-0.242c-0.046,0-0.092,0.008-0.14,0.008h-0.004
	c-0.428,0.005-0.858,0.026-1.286,0.075c-0.438,0.047-0.872,0.116-1.303,0.206c-1.638,0.346-3.163,0.996-4.524,1.902
	c-0.066-0.045-0.132-0.089-0.196-0.136c-0.697-2.327-2.019-4.359-3.75-5.936c-0.235-1.547-0.054-3.105,0.509-4.541
	c0.005-0.013,0.014-0.02,0.019-0.032c0.27-0.68,0.618-1.314,1.031-1.895c0.02-0.026,0.038-0.053,0.057-0.079
	c0.198-0.272,0.409-0.534,0.636-0.781c0.01-0.009,0.021-0.021,0.029-0.031c0.484-0.524,1.03-0.985,1.625-1.378
	c0.016-0.01,0.033-0.02,0.049-0.029c0.262-0.17,0.534-0.323,0.814-0.464c0.066-0.034,0.132-0.067,0.198-0.098
	c0.24-0.115,0.489-0.215,0.742-0.309c0.079-0.028,0.158-0.062,0.238-0.088c0.314-0.105,0.635-0.197,0.964-0.268
	c0.009-0.002,0.017-0.005,0.024-0.007c0.002-0.001,0.004-0.001,0.007-0.001c0.66-0.138,1.424-0.182,2.221-0.144
	c0.027,0.001,0.054-0.01,0.079-0.01c3.965,0.21,7.38,3.072,8.216,6.997C54.707,37.973,54.756,38.689,54.719,39.448z"/>
</svg>
