<?xml version="1.0" encoding="utf-8"?>
<!-- Generator: Adobe Illustrator 16.0.0, SVG Export Plug-In . SVG Version: 6.00 Build 0)  -->
<!DOCTYPE svg PUBLIC "-//W3C//DTD SVG 1.1//EN" "http://www.w3.org/Graphics/SVG/1.1/DTD/svg11.dtd">
<svg version="1.1" id="Layer_1" xmlns="http://www.w3.org/2000/svg" xmlns:xlink="http://www.w3.org/1999/xlink" x="0px" y="0px"
	 width="91px" height="91px" viewBox="0 0 91 91" enable-background="new 0 0 91 91" xml:space="preserve">
<g>
	<g>
		<path fill="#85986F" d="M43.519,13.991c0.137-0.294,0.493-0.517,0.752-0.481c0.319,0,0.612,0.183,0.749,0.474l2.033,4.317
			c0.054-0.122,0.129-0.235,0.243-0.322l4.076-3.091c-0.034-0.035-0.077-0.061-0.107-0.106L44.27,4.529l-6.246,9.916l4.007,2.773
			L43.519,13.991z"/>
		<path fill="#ACD263" d="M60.472,10.064l-12.176,9.235c-0.212,0.161-0.476,0.19-0.718,0.124l4.089,8.68l4.844-2.354
			c-0.096-0.177-0.132-0.391-0.074-0.601L60.472,10.064z"/>
		<path fill="#ACD263" d="M33.664,25.377l3.867,1.605l3.797-8.237l-12.599-8.722l4.904,15.082
			C33.664,25.197,33.668,25.287,33.664,25.377z"/>
		<path fill="#FAE58F" d="M57.947,33.565c-0.364-0.277-0.436-0.797-0.158-1.161c0.279-0.364,0.795-0.435,1.161-0.16
			c1.103,0.838,2.142,1.767,3.121,2.761c-0.035-0.16-0.039-0.328,0.028-0.489l4.924-12.033L51.636,29.96
			c-0.202,0.096-0.431,0.105-0.638,0.035c-0.207-0.076-0.379-0.228-0.474-0.43l-6.245-13.268l-5.578,12.101
			c-0.187,0.406-0.662,0.585-1.068,0.417l-15.401-6.396l5.896,11.521c0.839-0.772,1.712-1.499,2.629-2.156
			c0.37-0.269,0.891-0.183,1.155,0.191c0.268,0.371,0.181,0.889-0.19,1.154c-8.09,5.784-13.116,16.616-13.116,28.273
			c0,16.488,10.178,27.145,25.934,27.145c15.754,0,25.934-10.656,25.934-27.145C70.473,49.93,65.79,39.522,57.947,33.565z"/>
	</g>
	<g>
		<g>
			<polyline fill="#C5DC76" points="27.804,34.478 20.468,20.144 37.949,27.407 44.271,13.69 51.273,28.567 68.609,20.144 
				62.866,34.183 			"/>
			<path fill="#434B56" d="M27.805,36.714c-0.813,0-1.596-0.445-1.992-1.218l-7.335-14.334c-0.427-0.835-0.289-1.846,0.349-2.534
				c0.635-0.688,1.634-0.907,2.498-0.547l15.496,6.437l5.42-11.762c0.363-0.789,1.152-1.297,2.021-1.301c0.004,0,0.006,0,0.01,0
				c0.864,0,1.653,0.5,2.021,1.284l6.04,12.83l15.302-7.435c0.834-0.404,1.83-0.252,2.507,0.381
				c0.675,0.634,0.889,1.619,0.538,2.477l-5.744,14.038c-0.468,1.143-1.773,1.692-2.916,1.222c-1.143-0.468-1.689-1.772-1.222-2.914
				l3.53-8.626L52.25,30.578c-0.537,0.26-1.157,0.295-1.722,0.097c-0.563-0.199-1.023-0.614-1.277-1.155l-4.958-10.536l-4.313,9.358
				c-0.502,1.091-1.779,1.589-2.887,1.128L25.23,24.542l4.562,8.917c0.564,1.099,0.129,2.447-0.971,3.008
				C28.494,36.635,28.148,36.714,27.805,36.714z"/>
		</g>
		<path fill="#434B56" d="M44.539,90.965c-17.344,0-28.996-12.139-28.996-30.207c0-12.626,5.516-24.415,14.396-30.762
			c1.006-0.72,2.4-0.488,3.118,0.517c0.718,1.003,0.487,2.4-0.518,3.119c-7.726,5.523-12.526,15.919-12.526,27.126
			c0,15.635,9.627,25.737,24.527,25.737c14.898,0,24.526-10.103,24.526-25.737c0-10.873-4.587-21.11-11.969-26.719
			c-0.982-0.747-1.175-2.15-0.429-3.131c0.747-0.984,2.147-1.176,3.133-0.43c8.6,6.535,13.734,17.854,13.734,30.28
			C73.535,78.826,61.883,90.965,44.539,90.965z"/>
		<path fill="#434B56" d="M57.236,26.95c-0.189,0-0.385-0.025-0.578-0.077c-1.192-0.317-1.901-1.543-1.581-2.737l2.974-11.115
			l-8.903,6.751c-0.984,0.745-2.387,0.553-3.132-0.429c-0.747-0.983-0.553-2.386,0.431-3.131L60.545,5.52
			c0.763-0.577,1.806-0.608,2.597-0.075c0.792,0.533,1.161,1.511,0.914,2.433l-4.66,17.415C59.128,26.292,58.224,26.95,57.236,26.95
			z"/>
		<path fill="#434B56" d="M32.846,26.95c-0.941,0-1.817-0.6-2.125-1.544L25.057,7.992C24.761,7.08,25.08,6.08,25.848,5.506
			c0.77-0.571,1.819-0.589,2.608-0.044l14.667,10.153c1.014,0.703,1.268,2.096,0.565,3.11c-0.702,1.014-2.095,1.269-3.11,0.566
			l-9.222-6.384l3.617,11.115c0.381,1.174-0.262,2.437-1.436,2.818C33.308,26.915,33.075,26.95,32.846,26.95z"/>
		<path fill="#434B56" d="M60.408,76.978c-0.562,0-1.123-0.21-1.557-0.631L27.338,45.731c-0.886-0.86-0.906-2.275-0.047-3.16
			c0.859-0.885,2.275-0.905,3.161-0.046L61.966,73.14c0.885,0.86,0.906,2.275,0.046,3.161C61.573,76.75,60.99,76.978,60.408,76.978z
			"/>
		<path fill="#434B56" d="M62.866,56.237c-0.553,0-1.105-0.202-1.535-0.61L40.314,35.754c-0.896-0.849-0.935-2.263-0.086-3.161
			c0.847-0.896,2.261-0.935,3.158-0.088L64.402,52.38c0.896,0.847,0.936,2.261,0.086,3.158
			C64.051,56.004,63.459,56.237,62.866,56.237z"/>
		<path fill="#434B56" d="M47.796,85.302c-0.561,0-1.122-0.21-1.558-0.631L22.066,61.191c-0.886-0.86-0.906-2.276-0.046-3.161
			c0.86-0.887,2.277-0.905,3.16-0.046l24.173,23.48c0.886,0.86,0.906,2.273,0.046,3.159C48.962,85.076,48.379,85.302,47.796,85.302z
			"/>
		<path fill="#434B56" d="M19.003,66.558c-0.562,0-1.126-0.21-1.561-0.636c-0.884-0.86-0.9-2.274-0.039-3.16l27.688-28.384
			c0.862-0.883,2.277-0.9,3.16-0.038c0.884,0.86,0.901,2.277,0.04,3.16L20.603,65.883C20.166,66.332,19.585,66.558,19.003,66.558z"
			/>
		<path fill="#434B56" d="M25.33,81.253c-0.562,0-1.124-0.213-1.559-0.636c-0.885-0.86-0.903-2.275-0.04-3.159l34.001-34.889
			c0.863-0.885,2.277-0.903,3.161-0.041c0.883,0.861,0.9,2.277,0.04,3.161L26.932,80.577C26.493,81.026,25.911,81.253,25.33,81.253z
			"/>
		<path fill="#434B56" d="M37.537,90.19c-0.564,0-1.128-0.212-1.563-0.637c-0.881-0.862-0.897-2.277-0.035-3.16l25.33-25.899
			c0.862-0.881,2.277-0.896,3.161-0.034c0.881,0.861,0.896,2.278,0.033,3.16L39.134,89.519C38.697,89.969,38.118,90.19,37.537,90.19
			z"/>
		<path fill="#434B56" d="M37.127,15.904c-0.408,0-0.82-0.112-1.19-0.345c-1.045-0.658-1.358-2.037-0.7-3.082L42.35,1.182
			c0.403-0.637,1.098-1.029,1.851-1.043c0.789-0.035,1.464,0.352,1.887,0.974l7.707,11.296c0.694,1.021,0.431,2.412-0.587,3.106
			c-1.02,0.695-2.41,0.433-3.106-0.587l-5.784-8.48l-5.299,8.411C38.596,15.534,37.868,15.904,37.127,15.904z"/>
	</g>
</g>
</svg>
