<?xml version="1.0" encoding="utf-8"?>
<!-- Generator: Adobe Illustrator 10.0, SVG Export Plug-In . SVG Version: 3.0.0 Build 76)  -->
<!DOCTYPE svg PUBLIC "-//W3C//DTD SVG 1.0//EN"    "http://www.w3.org/TR/2001/REC-SVG-20010904/DTD/svg10.dtd" [
	<!ENTITY ns_flows "http://ns.adobe.com/Flows/1.0/">
	<!ENTITY ns_extend "http://ns.adobe.com/Extensibility/1.0/">
	<!ENTITY ns_ai "http://ns.adobe.com/AdobeIllustrator/10.0/">
	<!ENTITY ns_graphs "http://ns.adobe.com/Graphs/1.0/">
	<!ENTITY ns_vars "http://ns.adobe.com/Variables/1.0/">
	<!ENTITY ns_imrep "http://ns.adobe.com/ImageReplacement/1.0/">
	<!ENTITY ns_sfw "http://ns.adobe.com/SaveForWeb/1.0/">
	<!ENTITY ns_custom "http://ns.adobe.com/GenericCustomNamespace/1.0/">
	<!ENTITY ns_adobe_xpath "http://ns.adobe.com/XPath/1.0/">
	<!ENTITY ns_svg "http://www.w3.org/2000/svg">
	<!ENTITY ns_xlink "http://www.w3.org/1999/xlink">
]>
<svg 
	 xmlns:x="&ns_extend;" xmlns:i="&ns_ai;" xmlns:graph="&ns_graphs;" i:viewOrigin="155 696.1279" i:rulerOrigin="0 0" i:pageBounds="0 850.3936 850.3936 0"
	 xmlns="&ns_svg;" xmlns:xlink="&ns_xlink;" xmlns:a="http://ns.adobe.com/AdobeSVGViewerExtensions/3.0/"
	 width="540" height="542.25" viewBox="0 0 540 542.25" overflow="visible" enable-background="new 0 0 540 542.25"
	 xml:space="preserve">
	<metadata>
		<variableSets  xmlns="&ns_vars;">
			<variableSet  varSetName="binding1" locked="none">
				<variables></variables>
				<v:sampleDataSets  xmlns="&ns_custom;" xmlns:v="&ns_vars;"></v:sampleDataSets>
			</variableSet>
		</variableSets>
		<sfw  xmlns="&ns_sfw;">
			<slices></slices>
			<sliceSourceBounds  y="153.878" x="155" width="540" height="542.25" bottomLeftOrigin="true"></sliceSourceBounds>
		</sfw>
	</metadata>
	<g id="Ebene_1" i:layer="yes" i:dimmedPercent="50" i:rgbTrio="#4F008000FFFF">
		<g>
			<g>
				<defs>
					<path id="XMLID_1_" d="M0,0h540v542.25H0V0z"/>
				</defs>
				<clipPath id="XMLID_2_">
					<use xlink:href="#XMLID_1_" />
				</clipPath>
				<path i:knockout="Off" clip-path="url(#XMLID_2_)" fill-rule="evenodd" clip-rule="evenodd" fill="#FFFFFF" d="M3,3h531.75v534
					H3V3z"/>
				<path i:knockout="Off" clip-path="url(#XMLID_2_)" fill-rule="evenodd" clip-rule="evenodd" fill="#FB0F0C" d="M465,270
					l-0.75-6.75v-6.75l-0.75-6.75l-0.75-6.75l-0.75-6.75l-1.5-6.75l-1.5-6.75l-1.5-6.75l-2.25-6.75l-2.25-6l-2.25-6.75l-3-6l-2.25-6
					l-3-6l-3.75-6l-3-6l-3.75-6l-3.75-5.25l-4.5-5.25l-3.75-6l-4.5-4.5l-4.5-5.25l-5.25-5.25l-4.5-4.5L396,120l-5.25-4.5l-5.25-3.75
					l-5.25-3.75l-6-3.75l-6-3.75L363,96.75l-6-3l-6-3l-6.75-2.25l-6-3l-6.75-2.25l-6-2.25l-6.75-1.5L312,78l-6-1.5l-6.75-1.5
					l-6.75-0.75l-6.75-0.75L279,72.75h-6.75h-6.75h-6.75L252,73.5l-6.75,0.75L238.5,75l-6.75,1.5L225,78l-6.75,1.5l-6,1.5
					l-6.75,2.25l-6.75,2.25l-6,3l-6,2.25l-6,3l-6,3l-6,3.75l-6,3.75L157.5,108l-6,3.75l-5.25,3.75L141,120l-5.25,4.5l-4.5,4.5
					l-4.5,5.25l-5.25,5.25l-3.75,4.5l-4.5,6l-3.75,5.25l-4.5,5.25l-3,6l-3.75,6l-3,6l-3,6l-3,6l-3,6L84,203.25l-2.25,6l-1.5,6.75
					L78,222.75l-1.5,6.75l-0.75,6.75l-1.5,6.75l-0.75,6.75l-0.75,6.75v6.75V270v6.75v6.75l0.75,6.75l0.75,6.75l1.5,6.75l0.75,6.75
					l1.5,6l2.25,6.75l1.5,6.75l2.25,6l2.25,6.75l3,6l3,6.75l3,6l3,6l3.75,5.25l3,6l4.5,5.25l3.75,6l4.5,5.25l3.75,5.25l5.25,4.5
					l4.5,5.25l4.5,4.5l5.25,4.5l5.25,4.5l5.25,3.75l6,4.5l5.25,3.75l6,3l6,3.75l6,3l6,3l6,3l6,2.25l6.75,2.25l6.75,2.25l6,1.5
					L225,462l6.75,0.75l6.75,1.5l6.75,0.75l6.75,0.75l6.75,0.75h6.75h6.75H279l6.75-0.75l6.75-0.75l6.75-0.75l6.75-1.5l6-0.75
					l6.75-2.25l6.75-1.5l6-2.25l6.75-2.25l6-2.25l6.75-3l6-3l6-3l5.25-3.75l6-3l6-3.75l5.25-4.5l5.25-3.75l5.25-4.5l5.25-4.5
					l4.5-4.5L411,405l4.5-4.5l4.5-5.25l3.75-5.25l4.5-6l3.75-5.25l3.75-6l3-5.25l3.75-6l3-6l2.25-6.75l3-6L453,336l2.25-6l2.25-6.75
					l1.5-6.75l1.5-6l1.5-6.75l0.75-6.75l0.75-6.75l0.75-6.75v-6.75L465,270z M417.75,270v-6l-0.75-6l-0.75-6l-0.75-6l-0.75-6
					l-1.5-5.25l-1.5-6l-1.5-6L408,217.5l-2.25-6l-2.25-5.25l-2.25-5.25l-3-5.25l-3-5.25l-3.75-4.5l-3-5.25l-3.75-4.5l-3.75-4.5
					l-3.75-4.5l-4.5-4.5l-4.5-3.75l-3.75-3.75l-5.25-3.75l-4.5-3.75L349.5,144l-4.5-3l-5.25-3l-5.25-2.25l-5.25-3l-6-2.25
					l-5.25-2.25l-5.25-1.5l-6-1.5l-6-1.5l-5.25-1.5l-6-0.75l-6-0.75h-6l-6-0.75h-6l-6,0.75h-6l-5.25,0.75l-6,0.75l-6,1.5l-6,1.5
					l-5.25,1.5l-6,1.5l-5.25,2.25l-5.25,2.25l-6,3l-5.25,2.25l-4.5,3l-5.25,3l-5.25,3.75l-4.5,3.75l-4.5,3.75l-4.5,3.75l-4.5,3.75
					l-3.75,4.5l-4.5,4.5l-3.75,4.5l-3.75,4.5l-3,5.25l-3,4.5l-3.75,5.25L136.5,201l-3,5.25l-2.25,5.25l-2.25,6l-2.25,5.25l-1.5,6
					l-1.5,6l-1.5,5.25l-0.75,6l-0.75,6l-0.75,6v6v6v6v6l0.75,5.25l0.75,6l0.75,6l1.5,6l1.5,5.25l1.5,6l2.25,6l2.25,5.25l2.25,5.25
					l3,5.25l2.25,5.25l3.75,5.25l3,5.25l3,4.5l3.75,4.5l3.75,5.25l4.5,3.75l3.75,4.5l4.5,4.5l4.5,3.75l4.5,3.75l4.5,3l5.25,3.75
					l5.25,3l4.5,3l5.25,3l6,2.25l5.25,2.25L219,411l6,1.5l5.25,1.5l6,1.5l6,1.5l6,0.75l5.25,0.75l6,0.75h6h6h6l6-0.75l6-0.75l6-0.75
					l5.25-1.5l6-1.5l6-1.5L318,411l5.25-2.25l6-2.25l5.25-2.25l5.25-3l5.25-3l4.5-3l5.25-3.75l4.5-3l5.25-3.75l3.75-3.75l4.5-4.5
					l4.5-4.5l3.75-3.75l3.75-5.25l3.75-4.5l3-4.5l3.75-5.25l3-5.25l3-5.25l2.25-5.25l2.25-5.25l2.25-5.25l2.25-6l1.5-6l1.5-5.25
					l1.5-6l0.75-6l0.75-6L417,282l0.75-6V270z"/>
			</g>
		</g>
	</g>
</svg>
